<svg width="96" height="96" xmlns="http://www.w3.org/2000/svg" xmlns:xlink="http://www.w3.org/1999/xlink" overflow="hidden"><defs><clipPath id="clip0"><rect x="137" y="121" width="96" height="96"/></clipPath></defs><g clip-path="url(#clip0)" transform="translate(-137 -121)"><path d="M157.1 203.9 155.7 202.5 182.2 176C187.5 172 193.5 169 197 165.4L223.2 139.2C225.5 136.9 225.5 133.1 223.2 130.7L223.2 130.7 223.2 130.7C220.9 128.4 217.1 128.4 214.7 130.7L188.6 156.9C185 160.5 182 166.5 178 171.8L151.5 198.3 150.1 196.9C148.9 195.7 147 195.7 145.9 196.9 144.8 198.1 144.7 200 145.9 201.1L152.9 208.1C154.1 209.3 156 209.3 157.1 208.1 158.3 206.9 158.3 205.1 157.1 203.9Z"/><path d="M217.4 190.2C215.9 191.3 215 193 215 195 215 197 215.9 198.7 217.4 199.8 218.4 198.5 219 196.8 219 195 219 193.2 218.4 191.5 217.4 190.2Z"/><path d="M204.6 190.2C203.6 191.5 203 193.2 203 195 203 196.8 203.6 198.5 204.6 199.8 206.1 198.7 207 197 207 195 207 193 206.1 191.3 204.6 190.2Z"/><path d="M213 195C213 192.5 214.2 190.2 216 188.8 214.6 187.7 212.9 187 211 187 209.1 187 207.4 187.7 206 188.8 207.8 190.3 209 192.5 209 195 209 197.5 207.8 199.8 206 201.2 207.4 202.3 209.1 203 211 203 212.9 203 214.6 202.3 216 201.2 214.2 199.8 213 197.5 213 195Z"/></g></svg>