<svg width="96" height="96" xmlns="http://www.w3.org/2000/svg" xmlns:xlink="http://www.w3.org/1999/xlink" overflow="hidden"><defs><clipPath id="clip0"><rect x="24" y="29" width="96" height="96"/></clipPath></defs><g clip-path="url(#clip0)" transform="translate(-24 -29)"><path d="M55.8887 79.5513C57.2402 78.2027 58.8579 77.1505 60.6387 76.4619 66.2729 74.2969 72.0637 72.5639 77.961 71.2779 78.4405 71.1855 78.7892 70.7691 78.796 70.2809 78.79 69.728 78.337 69.2847 77.7841 69.2907 77.7178 69.2914 77.6518 69.2987 77.5869 69.3125 71.5715 70.6217 65.6647 72.3879 59.918 74.5957 57.8797 75.3838 56.0279 76.5878 54.4805 78.1309 50.7805 81.7977 45.9334 86.8499 42.5981 90.5124 42.5824 90.5297 42.5868 90.5365 42.6081 90.528 43.8113 90.0603 45.1881 89.55 46.6998 89.0228 49.65 85.876 53.0986 82.3165 55.8887 79.5513Z"/><path d="M65.2744 70.2744C67.5352 68.0144 69.7275 65.7856 71.8506 63.6279L74.3477 61.0928C75.7496 59.6631 77.4454 58.555 79.3177 57.8452 84.4896 55.8572 89.7994 54.2487 95.205 53.0323 95.6848 52.9398 96.034 52.5236 96.0417 52.035 96.0365 51.4827 95.5846 51.0392 95.0324 51.0444 94.9654 51.045 94.8986 51.0524 94.833 51.0664 89.3124 52.3048 83.8897 53.9455 78.6084 55.9751 76.467 56.7865 74.5275 58.0533 72.9238 59.688L70.4248 62.2251C68.3057 64.3794 66.1172 66.6035 63.8604 68.8604 63.5049 69.2163 62.8904 69.8516 62.2627 70.5024 61.6453 71.1418 61.0262 71.7819 60.6195 72.1909 60.6136 72.1968 60.6157 72.1987 60.6234 72.1958 62.0011 71.6748 63.4234 71.1731 64.8647 70.6907 65.02 70.5319 65.1632 70.3858 65.2744 70.2744Z"/><path d="M107.507 41.4932C100.239 34.2244 88.9445 43.9409 78.8917 53.7177 78.8728 53.7361 78.8761 53.7441 78.9008 53.7348 80.2094 53.2429 81.7616 52.6818 83.4897 52.1018 93.5097 42.7908 101.21 38.0246 106.093 42.9072 107.42 44.1376 108.17 45.8678 108.161 47.6772 108.133 54.7553 97.5957 65.1234 85.3936 77.1283 83.2295 79.2583 80.9941 81.4583 78.7256 83.726 76.4571 85.9937 74.2578 88.2294 72.1279 90.3944 60.1221 102.595 49.7539 113.133 42.6768 113.161L42.6475 113.161C40.8486 113.161 39.131 112.412 37.9075 111.093 35.1292 108.314 35.1653 104.734 38.0208 99.8262 39.6393 97.0562 42.169 94.9336 45.178 93.8208 49.9161 92.0433 54.7754 90.6071 59.7185 89.5233 60.197 89.4309 60.5445 89.0148 60.5502 88.5275 60.5446 87.9747 60.092 87.5312 59.5393 87.5367 59.4726 87.5374 59.4063 87.5447 59.3411 87.5586 54.2904 88.6634 49.3255 90.1293 44.4847 91.9448 41.0401 93.2188 38.1444 95.6488 36.292 98.82 32.9541 104.557 33.0205 109.034 36.4932 112.507 38.0932 114.199 40.3186 115.159 42.6475 115.161L42.6846 115.161C50.5957 115.129 60.7266 104.832 73.5537 91.7961 75.68 89.6357 77.875 87.4038 80.14 85.14 82.405 82.8762 84.6361 80.68 86.7973 78.5541 99.833 65.7271 110.13 55.5962 110.161 47.6851 110.169 45.3432 109.209 43.1021 107.507 41.4932Z"/></g></svg>