<svg width="96" height="96" xmlns="http://www.w3.org/2000/svg" xmlns:xlink="http://www.w3.org/1999/xlink" overflow="hidden"><defs><clipPath id="clip0"><rect x="676" y="24" width="96" height="96"/></clipPath></defs><g clip-path="url(#clip0)" transform="translate(-676 -24)"><path d="M707.53 90.65 705.89 103.224C705.461 106.51 707.778 109.521 711.064 109.95 711.321 109.983 711.58 110 711.839 110L722.006 110 726.006 106 726.006 105.5 721.006 105.5C720.178 105.5 719.506 104.828 719.506 104 719.506 103.172 720.178 102.5 721.006 102.5L726.006 102.5 726.006 99.5 721.006 99.5C720.178 99.5 719.506 98.8284 719.506 98 719.506 97.1716 720.178 96.5 721.006 96.5L726.006 96.5 726.006 93 718.344 93C714.613 92.9989 710.925 92.1975 707.53 90.65Z"/><path d="M747.4 89.991C744.235 91.9563 740.584 92.9985 736.858 93L729.006 93 729.006 96.5 734.006 96.5C734.834 96.5 735.506 97.1716 735.506 98 735.506 98.8284 734.834 99.5 734.006 99.5L729.006 99.5 729.006 102.5 734.006 102.5C734.834 102.5 735.506 103.172 735.506 104 735.506 104.828 734.834 105.5 734.006 105.5L729.006 105.5 729.006 106 733.006 110 743.173 110C746.487 110 749.173 107.313 749.172 103.999 749.172 103.74 749.156 103.481 749.122 103.224Z"/><path d="M738 34.693 715 34.693C706.716 34.693 700 41.4087 700 49.693L700 50.271C700.821 50.092 701.659 50.0011 702.5 50L716.214 50C722.718 49.9928 727.997 55.2596 728.004 61.7639 728.006 63.6692 727.546 65.5466 726.663 67.235L738 67.235C746.284 67.235 753 60.5193 753 52.235L753 49.693C753 41.4087 746.284 34.693 738 34.693Z"/><path d="M738 71.235 723.249 71.235C721.221 72.7605 718.752 73.5859 716.214 73.587L708.376 73.587C707.271 73.587 706.376 72.6916 706.376 71.587 706.376 70.4824 707.271 69.587 708.376 69.587L716.214 69.587C720.518 69.5382 723.968 66.0094 723.919 61.7052 723.871 57.4698 720.449 54.048 716.214 54L702.5 54C701.322 53.9965 700.159 54.2627 699.1 54.778 696.512 56.1356 694.951 58.8745 695.1 61.793L695.1 66.03C695.304 68.4538 695.908 70.8271 696.886 73.054L698.061 75.739C701.588 83.7954 709.549 89.0003 718.344 89L736.858 89C745.774 88.9978 753 81.7696 753 72.854L753 63.854C749.413 68.5048 743.873 71.2308 738 71.235Z"/></g></svg>