<svg width="96" height="96" xmlns="http://www.w3.org/2000/svg" xmlns:xlink="http://www.w3.org/1999/xlink" overflow="hidden"><defs><clipPath id="clip0"><rect x="294" y="138" width="96" height="96"/></clipPath></defs><g clip-path="url(#clip0)" transform="translate(-294 -138)"><path d="M384.458 176.712C385.344 176.696 386.054 175.974 386.054 175.088L386.054 173.131C386.054 170.013 383.526 167.484 380.407 167.484 380.407 167.484 380.407 167.484 380.407 167.484L379.06 167.484 376.51 165.444C376.497 165.434 376.48 165.422 376.467 165.411 376.469 165.391 376.479 165.373 376.479 165.352 376.494 162.171 374.15 159.08 371.827 157.432 370.481 156.462 368.908 155.855 367.258 155.67 366.494 155.597 365.815 156.156 365.741 156.92 365.694 157.411 365.91 157.891 366.31 158.18 368.242 159.502 369.722 161.383 370.554 163.572L368.748 163.572C367.208 160.445 364.024 158.467 360.539 158.471 360.496 158.474 360.453 158.474 360.41 158.472 358.773 158.473 357.165 158.891 355.735 159.688 355.452 159.84 355.228 160.084 355.099 160.379 354.8 161.085 355.131 161.9 355.838 162.199 356.006 162.27 356.187 162.307 356.37 162.309L356.374 162.309C357.959 162.324 359.511 162.76 360.873 163.572L359.501 163.572C357.828 163.552 356.406 164.787 356.19 166.446 356.016 168.124 357.178 169.648 358.843 169.923L359.566 171.153C359.834 171.626 359.886 172.191 359.709 172.706 358.496 177.437 358.259 182.365 359.012 187.19 359.078 187.69 359.153 188.19 359.233 188.682 359.382 189.576 359.147 190.493 358.586 191.205 357.853 191.774 356.983 192.141 356.063 192.269 356.008 192.166 355.952 192.062 355.916 191.984 353.924 187.501 350.882 177.998 350.588 172.528L350.558 172.027C350.286 166.583 351.22 161.146 353.294 156.105 353.514 155.541 353.426 154.904 353.063 154.419 348.172 147.962 337.568 145.394 326.675 148.026 315.581 150.709 306.89 158.054 305.049 166.302 304.83 167.261 305.414 168.22 306.367 168.465 306.822 168.578 307.304 168.502 307.702 168.253 309.493 167.149 311.449 166.335 313.495 165.843 315.525 165.228 317.635 164.913 319.756 164.91 319.762 164.91 319.766 164.915 319.766 164.921 319.766 164.923 319.764 164.926 319.762 164.928 315.37 168.725 312.76 174.181 312.56 179.983 312.487 180.947 313.209 181.787 314.173 181.86 314.692 181.9 315.202 181.706 315.564 181.331 317 179.834 318.662 178.572 320.49 177.59 321.459 177.089 322.496 176.731 323.568 176.528 323.574 176.527 323.579 176.531 323.579 176.536 323.58 176.539 323.579 176.542 323.577 176.544 320.376 180.682 319.432 186.136 321.054 191.11 321.276 191.825 321.92 192.326 322.667 192.365L322.697 192.365C323.366 192.363 323.981 191.997 324.303 191.41 325.471 189.306 327.121 187.507 329.116 186.161 329.55 185.859 330.009 185.598 330.49 185.379 331.167 185.097 331.93 185.103 332.603 185.394 333.338 185.716 333.911 186.324 334.188 187.078 334.398 187.578 334.367 188.146 334.104 188.62 334.096 188.634 334.097 188.649 334.09 188.663 334.083 188.676 334.07 188.685 334.064 188.699 333.753 189.389 333.383 190.163 332.997 190.947L331.354 191.169C325.248 192.387 320.658 197.457 320.052 203.654L319.984 204.407 319.98 204.52C320.039 207.515 318.163 210.208 315.333 211.19 313.578 211.8 311.637 211.522 310.123 210.444 308.667 209.385 307.803 207.695 307.797 205.894L307.797 197.476 310.437 195.496C311.397 194.789 311.776 193.533 311.369 192.413L307.376 181.243C307.011 180.151 305.941 179.455 304.795 179.565 303.894 179.676 303.133 180.285 302.827 181.139L298.802 192.412C298.396 193.532 298.773 194.785 299.73 195.494L302.335 197.447 301.95 206.27C301.743 209.869 302.92 213.411 305.241 216.169 307.679 218.991 311.176 220.678 314.901 220.829 315.096 220.838 315.292 220.842 315.487 220.842L317.455 220.842C324.515 220.842 330.154 215.066 330.292 207.693 330.327 205.852 331.779 204.352 333.617 204.256L332.484 212.72C332.418 213.212 332.446 213.712 332.566 214.194L334.523 222.02C334.961 223.771 336.534 225 338.34 225L348.004 225C348.556 225 349.004 224.552 349.004 224L349.004 223.831C349.004 220.13 346.004 217.131 342.304 217.131L341.416 217.131 340.578 213.776C341.923 212.792 343.056 211.546 343.906 210.113 344.719 208.521 345.336 206.837 345.742 205.097 345.858 204.626 345.629 204.138 345.192 203.927 344.689 203.697 344.096 203.919 343.866 204.422 343.839 204.483 343.817 204.546 343.802 204.611 343.439 206.183 342.886 207.705 342.157 209.145 341.351 210.489 340.247 211.631 338.93 212.481 338.554 212.711 338.368 213.156 338.469 213.585L339.665 218.373C339.776 218.818 340.176 219.13 340.635 219.13L342.304 219.13C344.578 219.133 346.525 220.762 346.931 223L338.34 223C337.453 223 336.679 222.396 336.464 221.535L334.507 213.708C334.448 213.472 334.434 213.226 334.466 212.985L335.738 203.486C335.811 202.981 335.488 202.504 334.993 202.383 332.025 201.722 329.083 203.592 328.422 206.56 328.342 206.92 328.298 207.287 328.292 207.656 328.174 213.929 323.414 218.842 317.455 218.842L315.487 218.842C315.321 218.842 315.154 218.839 314.987 218.831 311.81 218.702 308.828 217.263 306.75 214.856 304.772 212.504 303.768 209.485 303.945 206.418L304.279 198.779 304.471 198.907C304.797 199.124 305.219 199.131 305.552 198.925L305.797 198.773 305.797 205.895C305.805 208.338 306.978 210.631 308.955 212.067 310.998 213.525 313.621 213.902 315.992 213.078 319.62 211.818 322.033 208.376 321.98 204.535L322.043 203.845C322.558 198.547 326.469 194.204 331.685 193.14L331.91 193.11C330.954 194.979 330.137 196.5 330.123 196.527 329.861 197.013 330.044 197.619 330.53 197.881 331.017 198.143 331.623 197.96 331.885 197.474 331.99 197.278 334.477 192.648 335.887 189.522 335.892 189.51 335.89 189.497 335.895 189.485 336.406 188.505 336.46 187.349 336.04 186.326 335.569 185.082 334.613 184.082 333.39 183.556 332.213 183.049 330.88 183.044 329.698 183.543 329.1 183.812 328.527 184.136 327.988 184.51 325.883 185.931 324.118 187.798 322.819 189.98 322.816 189.985 322.81 189.987 322.805 189.984 322.802 189.983 322.801 189.981 322.8 189.978 321.402 185.078 322.831 179.807 326.512 176.284 326.785 176.014 326.885 175.614 326.771 175.247 326.65 174.882 326.332 174.616 325.951 174.563 323.487 174.264 322.159 174.614 319.599 175.8 317.771 176.775 316.09 178.005 314.609 179.455 314.605 179.459 314.599 179.458 314.595 179.455 314.593 179.453 314.592 179.45 314.592 179.447 314.962 173.691 317.967 168.428 322.735 165.182 323.134 164.915 323.288 164.402 323.1 163.959 322.973 163.678 322.729 163.466 322.432 163.382 319.388 162.447 316.871 162.97 313.027 163.898 310.958 164.396 308.972 165.193 307.133 166.264 307.128 166.267 307.122 166.265 307.119 166.26 307.118 166.258 307.117 166.255 307.118 166.253 309.03 158.928 316.998 152.424 327.145 149.97 337.207 147.536 346.918 149.764 351.377 155.508 349.237 160.779 348.276 166.455 348.561 172.137L348.591 172.641C348.902 178.421 351.984 188.064 354.09 192.802L354.094 192.808 354.095 192.812C355 194.434 355.987 196.008 357.052 197.529 357.359 197.988 357.98 198.111 358.439 197.804 358.898 197.497 359.021 196.876 358.714 196.417 358.71 196.411 358.706 196.404 358.701 196.398 358.369 195.913 357.739 194.976 357.153 194.065 358.291 193.829 359.336 193.265 360.158 192.443 361.066 191.288 361.447 189.805 361.207 188.355 361.129 187.887 361.058 187.409 360.992 186.907 360.279 182.362 360.496 177.719 361.63 173.26 361.963 172.221 361.841 171.09 361.294 170.146L360.245 168.361C360.074 168.091 359.764 167.94 359.446 167.972 358.783 168.011 358.215 167.505 358.176 166.842 358.172 166.777 358.174 166.711 358.181 166.645 358.287 166.005 358.853 165.545 359.501 165.572L363.483 165.572C364.016 165.582 364.47 165.185 364.531 164.655 364.567 164.207 364.297 163.79 363.874 163.64 362.293 162.068 360.263 161.024 358.064 160.654 358.041 160.651 358.04 160.642 358.062 160.635 358.826 160.394 359.622 160.271 360.422 160.272L360.427 160.272C363.352 160.229 366.025 161.917 367.243 164.577 367.245 165.126 367.692 165.571 368.242 165.572L370.513 165.572 374.234 166.299C374.596 166.489 374.935 166.721 375.243 166.99L378.085 169.265C378.263 169.407 378.483 169.484 378.71 169.484L380.408 169.484C382.422 169.484 384.055 171.117 384.055 173.131L384.055 174.921 377.455 174.921C374.785 174.939 372.525 176.895 372.124 179.534 372.052 180.026 372.393 180.483 372.885 180.555 372.928 180.561 372.971 180.564 373.015 180.564L381.121 180.564C381.11 181.715 380.176 182.643 379.025 182.647L371.527 182.647C370.96 182.648 370.416 182.874 370.016 183.276 369.608 183.686 369.381 184.242 369.383 184.821 369.386 185.542 369.525 186.257 369.794 186.926L370.403 188.454C372.321 193.228 373.303 198.327 373.294 203.473 373.289 207.845 369.976 211.505 365.625 211.943 365.117 211.996 364.732 212.426 364.734 212.936L364.734 218.13C364.734 218.682 365.182 219.13 365.734 219.13L367.304 219.13C369.578 219.133 371.526 220.762 371.931 223L362.799 223C361.73 223 360.864 222.134 360.864 221.065 360.864 221.065 360.864 221.065 360.864 221.065L360.864 212.798C360.851 212.286 360.464 211.862 359.956 211.802 356.235 211.409 352.605 210.408 349.209 208.838L347.336 207.968C346.898 207.755 346.371 207.88 346.075 208.267 345.748 208.713 345.845 209.339 346.29 209.666 346.343 209.705 346.4 209.738 346.46 209.766L348.368 210.652C351.693 212.19 355.232 213.213 358.864 213.687L358.864 221.065C358.864 223.238 360.626 225 362.799 225 362.799 225 362.799 225 362.799 225L373.004 225C373.556 225 374.004 224.552 374.004 224L374.004 223.831C374.004 220.13 371.004 217.131 367.304 217.131L366.734 217.131 366.734 213.8C371.698 212.859 375.292 208.522 375.294 203.47 375.303 198.072 374.273 192.722 372.26 187.712L371.651 186.184C371.475 185.747 371.384 185.28 371.383 184.809 371.383 184.764 371.4 184.721 371.432 184.689L371.529 184.647 379.026 184.647C381.286 184.641 383.117 182.81 383.122 180.55L383.122 179.979C383.122 179.822 383.102 179.665 383.061 179.512 382.956 179.078 382.569 178.77 382.122 178.765L374.223 178.765C374.823 177.523 376.077 176.731 377.456 176.721L383.9 176.721ZM305.045 196.886 303.931 196.145 300.928 193.892C300.679 193.705 300.581 193.378 300.685 193.085L304.71 181.812C304.784 181.607 305.01 181.499 305.216 181.573 305.328 181.613 305.416 181.701 305.456 181.812L309.486 193.087C309.591 193.379 309.493 193.705 309.245 193.891L306.234 196.148ZM368.752 157.862C368.732 157.844 368.737 157.837 368.763 157.846 369.482 158.096 370.162 158.45 370.78 158.896 372.648 160.199 373.993 162.125 374.574 164.328L372.45 163.912C372.16 161.596 370.38 159.361 368.752 157.862Z"/><path d="M370.079 169.759 370.858 172.096C371.432 172.559 372.147 172.811 372.885 172.811 373.066 172.81 373.247 172.795 373.426 172.766 374.245 172.619 374.98 172.173 375.49 171.514L375.583 171.397 370.512 167.331 370.512 167.331C369.966 168.015 369.802 168.929 370.079 169.759Z"/></g></svg>