<svg width="96" height="96" xmlns="http://www.w3.org/2000/svg" xmlns:xlink="http://www.w3.org/1999/xlink" overflow="hidden"><defs><clipPath id="clip0"><rect x="433" y="171" width="96" height="96"/></clipPath></defs><g clip-path="url(#clip0)" transform="translate(-433 -171)"><path d="M481.006 185C462.228 185 447.006 200.222 447.006 219 447.006 237.778 462.228 253 481.006 253 499.784 253 515.006 237.778 515.006 219 514.985 200.231 499.775 185.021 481.006 185ZM506.963 203.987C508.066 205.883 508.957 207.895 509.62 209.987L499.135 209.987C497.478 209.987 496.135 208.644 496.135 206.987 496.135 205.33 497.478 203.987 499.135 203.987ZM475.754 198C477.411 198 478.754 199.343 478.754 201 478.754 202.657 477.411 204 475.754 204L468.5 204C466.843 204 465.5 205.343 465.5 207 465.5 208.657 466.843 210 468.5 210L486.5 210C488.157 210 489.5 211.343 489.5 213 489.5 214.657 488.157 216 486.5 216L451.156 216C451.839 209.212 454.822 202.86 459.61 198ZM464.135 228C465.792 228 467.135 229.343 467.135 231 467.135 232.657 465.792 234 464.135 234L455.041 234C453.939 232.104 453.048 230.091 452.387 228ZM479.5 240C477.843 240 476.5 238.657 476.5 237 476.5 235.343 477.843 234 479.5 234L497.5 234C499.157 234 500.5 232.657 500.5 231 500.5 229.343 499.157 228 497.5 228L495.25 228C493.593 228 492.25 226.657 492.25 225 492.25 223.343 493.593 222 495.25 222L510.85 222C510.168 228.788 507.187 235.139 502.4 240Z"/></g></svg>