<svg width="96" height="96" xmlns="http://www.w3.org/2000/svg" xmlns:xlink="http://www.w3.org/1999/xlink" overflow="hidden"><defs><clipPath id="clip0"><rect x="263" y="24" width="96" height="96"/></clipPath></defs><g clip-path="url(#clip0)" transform="translate(-263 -24)"><path d="M325.4 45C325.4 48.866 322.266 52 318.4 52 314.534 52 311.4 48.866 311.4 45 311.4 41.134 314.534 38 318.4 38 322.266 38 325.4 41.134 325.4 45Z"/><path d="M336.2 110.7 326.4 82 326.4 57C326.4 55.3 325.1 54 323.4 54L311.4 54C310.9 54 310.3 54.1 309.9 54.4L301.9 59.2 292.6 49.9C291.4 48.7 289.5 48.7 288.4 49.9 287.2 51.1 287.2 53 288.4 54.1L299.4 65.1C300 65.7 300.7 66 301.5 66 302 66 302.6 65.9 303 65.6L310.5 61.1 310.5 82.1 300.7 110.8C300 112.9 301.1 115.2 303.2 115.9 303.6 116 304.1 116.1 304.5 116.1 306.2 116.1 307.7 115.1 308.3 113.4L318.5 83.5 328.7 113.4C329.3 115.1 330.8 116.1 332.5 116.1 332.9 116.1 333.4 116 333.8 115.9 335.8 115.1 336.9 112.8 336.2 110.7Z"/><path d="M288.6 59.8C288.3 59.8 288.1 59.7 287.9 59.5L285.9 57.5C285.5 57.1 285.5 56.5 285.9 56.1 286.3 55.7 286.9 55.7 287.3 56.1L289.3 58.1C289.7 58.5 289.7 59.1 289.3 59.5 289.1 59.7 288.9 59.8 288.6 59.8Z"/><path d="M317.4 31C317.4 29.3 316.1 28 314.4 28 313.6 28 312.8 28.3 312.3 28.9L304.3 36.9C299.3 41.9 298.2 45.3 294.5 49L296.4 50.9C300.4 46.9 302.8 46.9 308.6 41.1L316.6 33.1C317 32.6 317.4 31.8 317.4 31Z"/></g></svg>