<svg width="96" height="96" xmlns="http://www.w3.org/2000/svg" xmlns:xlink="http://www.w3.org/1999/xlink" overflow="hidden"><defs><clipPath id="clip0"><rect x="24" y="125" width="96" height="96"/></clipPath></defs><g clip-path="url(#clip0)" transform="translate(-24 -125)"><path d="M113.83 181.61 95.39 178.15 95.39 178.25 94.06 179C87.6292 182.346 80.9652 185.224 74.12 187.61 73.12 187.93 71.9 188.3 70.5 188.7 73.75 189.87 93.21 196.7 102.14 194.7 108.14 193.36 112.76 188.03 115.14 184.78 115.798 183.893 115.613 182.64 114.726 181.982 114.462 181.786 114.155 181.659 113.83 181.61Z"/><path d="M47 192.5C56.38 190.29 67.83 187.5 73.18 185.76L73.18 185.76 73.98 185.5 75.11 185.11 75.11 185.11C76.31 184.68 77.51 184.23 78.69 183.77L79.46 183.46 80.25 183.14 80.52 183.03 80.52 183.03C87.4 180.2 93.1 177.19 93.1 177.19 89.28 160.07 74.6 149.61 56.1 152.74 55.542 150.97 53.699 149.943 51.9 150.4L50.2 150.84C48.3763 151.321 47.2619 153.161 47.68 155 32.93 160.75 27.71 173.3 31 188L32.31 193.85C32.549 194.926 33.6134 195.606 34.69 195.37 36.86 194.88 40.69 194.01 45.11 192.97L45.11 192.97 47.11 192.51ZM55.35 153.12C60.9141 155.992 65.5113 160.436 68.57 165.9 71.2817 170.644 73.2353 175.783 74.36 181.13L72.72 181.7 72.45 181.79C71.3813 176.568 69.4912 171.549 66.85 166.92 63.06 160.52 58.09 156.15 52.24 153.92ZM44.26 189C42.5 179.31 42.83 170.07 45.26 162.35 46.09 159.741 47.2138 157.235 48.61 154.88L51.45 154.14C49.5956 156.864 48.1597 159.85 47.19 163 44.84 170.38 44.52 179.25 46.19 188.58Z"/></g></svg>