<svg width="96" height="96" xmlns="http://www.w3.org/2000/svg" xmlns:xlink="http://www.w3.org/1999/xlink" overflow="hidden"><defs><clipPath id="clip0"><rect x="417" y="339" width="96" height="96"/></clipPath></defs><g clip-path="url(#clip0)" transform="translate(-417 -339)"><path d="M465 349C444.013 349 427 366.013 427 387 427 407.987 444.013 425 465 425 485.987 425 503 407.987 503 387 503 366.013 485.987 349 465 349ZM465 423C445.118 423 429 406.882 429 387 429 367.118 445.118 351 465 351 484.882 351 501 367.118 501 387 500.977 406.873 484.873 422.977 465 423Z"/><path d="M482 396 448 396C447.448 396 447 396.448 447 397 447 397.552 447.448 398 448 398L482 398C482.552 398 483 397.552 483 397 483 396.448 482.552 396 482 396Z"/><path d="M448 380 459 380C459.552 380 460 379.552 460 379 460 378.448 459.552 378 459 378L448 378C447.448 378 447 378.448 447 379 447 379.552 447.448 380 448 380Z"/><path d="M482 378 471 378C470.448 378 470 378.448 470 379 470 379.552 470.448 380 471 380L482 380C482.552 380 483 379.552 483 379 483 378.448 482.552 378 482 378Z"/></g></svg>