<svg width="96" height="96" xmlns="http://www.w3.org/2000/svg" xmlns:xlink="http://www.w3.org/1999/xlink" overflow="hidden"><defs><clipPath id="clip0"><rect x="791" y="143" width="96" height="96"/></clipPath></defs><g clip-path="url(#clip0)" transform="translate(-791 -143)"><path d="M839 153C818 153 801 170 801 191 801 212 818 229 839 229 860 229 877 212 877 191 877 170 860 153 839 153ZM839 225C820.3 225 805 209.7 805 191 805 172.3 820.3 157 839 157 843.9 157 848.5 158 852.7 159.9L849.5 162.5C849.1 162.8 848.7 163 848.2 163L846.3 163C846.1 163 845.8 163 845.6 162.9 845.6 162.9 840.7 160 837.9 160 835.2 160 830.8 161.7 828.9 163 826 164.9 829.1 165.8 829.8 166 829.9 166 830 166 830 166L832.8 166C833.5 166 834.1 165.7 834.5 165.1L835.6 163.4C835.8 163.1 836.1 163 836.4 163L838 163 835.9 166.5C835.4 167.4 834.4 168 833.3 168L830.6 168C830.2 168 829.8 168.1 829.5 168.3L827 170 825 170C824.4 170 824 170.4 824 171L824 172C824 172.6 823.6 173 823 173L822.1 173C821.4 173 820.8 173.3 820.4 173.9L819.2 175.8C819.1 176 819 176.2 819 176.4L819 177C819 177.6 819.4 178 820 178L823.6 178C823.9 178 824.1 177.9 824.3 177.7L827.4 174.6C827.8 174.2 828.3 174 828.8 174L829.2 174C829.7 174 830.1 174.3 830.2 174.8L830.8 177.3C830.9 177.7 831.3 178.1 831.8 178.1L832 178.1C832.6 178.1 833 177.7 833 177.1L833 174.5C833 174.2 833.1 174 833.3 173.8L834 173 834.8 175.3C834.9 175.7 835.3 176 835.7 176L836.6 176C836.9 176 837.1 175.9 837.3 175.7L837.7 175.3C837.9 175.1 838.1 175 838.4 175L839 175C839.6 175 840 175.4 840 176L840 177C840 177.6 840.4 178 841 178L844.6 178C845.3 178 845.8 178.7 845.5 179.3L845.2 180.2C845 180.7 844.6 181 844.1 180.9L839.3 180.1C839.1 180.1 838.8 180.1 838.6 180.1L834.5 180.9C834.1 181 833.8 180.9 833.4 180.8 832.1 180.3 828.5 179 827 179 815.1 179 815 187 815 190 815 194 817.3 197 821 197 825.4 197 831 196.8 831 205L831 211.2C831 212.4 831.4 213.5 832.2 214.4L835.1 217.9C835.7 218.6 836.5 219 837.4 219L839.8 219C840.6 219 841.4 218.7 841.9 218.1L844.3 215.7C844.8 215.2 845.1 214.7 845.4 214.1L847.4 210C847.7 209.3 847.9 208.5 847.9 207.8L847.9 203.2C847.9 202.4 848.2 201.6 848.8 201.1L854.1 195.8C854.5 195.4 854.5 194.6 854 194.3 854 194.3 848 190.9 844.7 184.5 844.4 183.8 844.8 183 845.6 183L846 183 851.7 190.4C852.4 191.3 853.7 191.4 854.6 190.7L857.9 187.9C858.4 187.5 858.4 186.6 857.8 186.3L854.8 184.5C854.4 184.2 854.2 183.7 854.4 183.2L854.5 183C854.8 182.5 855.4 182.3 855.9 182.6L859.5 184.8C859.8 185 860.2 185.1 860.5 185.1L861.6 185.1C862.4 185.1 863.1 185.6 863.4 186.3L866.3 192.9C866.6 193.6 867.3 194.1 868.1 194.1L868.1 194.1C869 194.1 869.8 193.3 869.8 192.4L869.8 189.6C869.8 189.3 869.9 189 870.2 188.8L872.5 187C872.7 188.3 872.8 189.7 872.8 191.1 873 209.7 857.7 225 839 225Z"/><path d="M821 170 821 171 822 171C822.6 171 823 170.6 823 170L823 169 824 169 824 167.4C824 167.1 823.9 166.9 823.7 166.7L822.7 165.7C822.3 165.3 821.7 165.3 821.3 165.7L819.7 167.3C819.3 167.7 819.3 168.3 819.7 168.7L821 170Z"/></g></svg>