<svg width="96" height="96" xmlns="http://www.w3.org/2000/svg" xmlns:xlink="http://www.w3.org/1999/xlink" overflow="hidden"><defs><clipPath id="clip0"><rect x="786" y="430" width="96" height="96"/></clipPath></defs><g clip-path="url(#clip0)" transform="translate(-786 -430)"><path d="M847.9 492.4C855.7 484.9 856.1 472.5 848.7 464.5 856.6 468.6 863.1 474.9 866.9 479.1 862.9 483 856.1 488.8 847.9 492.4ZM808.6 471.8C811.9 469 815.4 466.6 819.2 464.6 811.9 472.6 812.3 484.9 820.1 492.4 811.9 488.8 805 483 801.1 479.1 803.4 476.5 805.9 474.1 808.6 471.8L808.6 471.8ZM834 494C825.2 494 818 486.8 818 478 818 469.2 825.2 462 834 462 842.8 462 850 469.2 850 478 850 486.8 842.8 494 834 494ZM872.9 476.3C867.1 469.5 851.9 454 834 454 816.1 454 800.9 469.5 795.1 476.3 793.6 478.1 793.7 480.6 795.3 482.3 801.2 488.5 816.3 502 834 502 851.7 502 866.8 488.5 872.8 482.3 874.3 480.7 874.4 478.1 872.9 476.3Z"/><path d="M844 478C844 483.523 839.523 488 834 488 828.477 488 824 483.523 824 478 824 472.477 828.477 468 834 468 839.523 468 844 472.477 844 478Z"/></g></svg>