<svg width="96" height="96" xmlns="http://www.w3.org/2000/svg" xmlns:xlink="http://www.w3.org/1999/xlink" overflow="hidden"><defs><clipPath id="clip0"><rect x="800" y="230" width="96" height="96"/></clipPath></defs><g clip-path="url(#clip0)" transform="translate(-800 -230)"><path d="M814 264 816 264 816 292 814 292Z"/><path d="M888 270 882 270 882 259C882 257.343 880.657 256 879 256L808 256C806.343 256 805 257.343 805 259L805 297C805 298.657 806.343 300 808 300L879 300C880.657 300 882 298.657 882 297L882 286 888 286C889.657 286 891 284.657 891 283L891 273C891 271.343 889.657 270 888 270ZM880 297C880 297.552 879.552 298 879 298L808 298C807.448 298 807 297.552 807 297L807 259C807 258.448 807.448 258 808 258L879 258C879.552 258 880 258.448 880 259ZM889 283C889 283.552 888.552 284 888 284L882 284 882 272 888 272C888.552 272 889 272.448 889 273Z"/></g></svg>