<svg width="96" height="96" xmlns="http://www.w3.org/2000/svg" xmlns:xlink="http://www.w3.org/1999/xlink" overflow="hidden"><defs><clipPath id="clip0"><rect x="417" y="439" width="96" height="96"/></clipPath></defs><g clip-path="url(#clip0)" transform="translate(-417 -439)"><path d="M498.952 478.985C497.445 475.485 496.143 472.465 496.143 469.701 496.143 466.947 496.518 464.206 497.258 461.554 497.836 459.536 498.153 457.453 498.2 455.354 498.2 447.553 493.09 444 488.343 444L487.657 444C482.91 444 477.8 447.553 477.8 455.354 477.847 457.453 478.164 459.536 478.742 461.554 479.482 464.206 479.857 466.947 479.857 469.7 479.857 472.259 478.738 475.045 477.376 478.221 477.217 479.374 477.139 480.536 477.143 481.7 477.143 483.638 478.343 486.436 479.624 489.4 480.376 486.643 481.357 483.954 482.559 481.361L483.021 480.283 492.979 480.283 493.441 481.361C495.191 485.42 497 489.621 497 494.25 497 503.092 492.6 510.432 491.586 512 490.633 512.658 489.501 513.007 488.343 513L487.657 513C486.502 513.006 485.372 512.66 484.419 512.008 484.26 511.761 484.011 511.357 483.719 510.841 483.43 513.163 482.95 515.458 482.283 517.701 483.945 518.557 485.788 519.003 487.657 519L488.343 519C491.117 519.025 493.805 518.036 495.9 516.218L496.111 516.018 496.28 515.78C500.501 509.379 502.831 501.916 503 494.25 503 488.383 500.849 483.39 498.952 478.985ZM485.211 474.285C485.491 473.251 485.684 472.195 485.788 471.128L490.212 471.128C490.316 472.195 490.509 473.251 490.789 474.285ZM491.434 460.117C491.001 461.766 490.667 463.439 490.434 465.128L485.567 465.128C485.334 463.439 485 461.766 484.567 460.117 484.11 458.57 483.852 456.97 483.801 455.358 483.801 451.958 485.207 450.004 487.658 450.004L488.344 450.004C490.795 450.004 492.201 451.956 492.201 455.358 492.149 456.969 491.891 458.567 491.434 460.113Z"/><path d="M446.286 510.841C445.986 511.353 445.744 511.755 445.586 512 444.633 512.658 443.501 513.007 442.343 513L441.658 513C440.503 513.007 439.373 512.661 438.42 512.008 437.41 510.443 433 503.1 433 494.25 433 489.621 434.809 485.421 436.559 481.359L437.021 480.281 446.979 480.281C447.132 480.639 447.285 480.997 447.441 481.359 448.642 483.952 449.624 486.642 450.376 489.399 451.652 486.437 452.857 483.639 452.857 481.699 452.861 480.536 452.783 479.374 452.624 478.222 451.262 475.045 450.143 472.259 450.143 469.699 450.143 466.945 450.517 464.204 451.257 461.552 451.836 459.534 452.153 457.451 452.2 455.352 452.2 447.553 447.09 444 442.342 444L441.657 444C436.909 444 431.8 447.553 431.8 455.354 431.847 457.453 432.164 459.536 432.742 461.554 433.482 464.206 433.857 466.947 433.857 469.7 433.857 472.464 432.557 475.485 431.048 478.984 429.15 483.39 427 488.383 427 494.25 427.171 501.916 429.501 509.378 433.723 515.779L433.892 516.017 434.104 516.217C436.198 518.035 438.884 519.024 441.657 519L442.342 519C444.214 519.004 446.059 518.558 447.722 517.7 447.055 515.457 446.575 513.163 446.286 510.841ZM439.211 474.281C439.491 473.247 439.684 472.191 439.788 471.124L444.212 471.124C444.316 472.191 444.508 473.247 444.788 474.281ZM441.657 450 442.342 450C444.794 450 446.2 451.952 446.2 455.354 446.148 456.967 445.891 458.566 445.433 460.113 445 461.762 444.666 463.435 444.433 465.124L439.567 465.124C439.334 463.435 439 461.762 438.567 460.113 438.11 458.566 437.852 456.966 437.801 455.354 437.8 451.952 439.206 450 441.657 450Z"/><path d="M475.952 490.985C474.445 487.485 473.143 484.465 473.143 481.701 473.143 478.947 473.518 476.206 474.258 473.554 474.836 471.536 475.153 469.453 475.2 467.354 475.2 459.553 470.09 456 465.343 456L464.657 456C459.91 456 454.8 459.553 454.8 467.354 454.847 469.453 455.164 471.536 455.742 473.554 456.482 476.206 456.857 478.947 456.857 481.7 456.857 484.464 455.557 487.486 454.048 490.984 452.151 495.39 450 500.383 450 506.25 450.171 513.916 452.501 521.378 456.724 527.779L456.893 528.017 457.104 528.217C459.198 530.034 461.884 531.024 464.657 531L465.343 531C468.117 531.025 470.805 530.036 472.9 528.218L473.111 528.018 473.28 527.78C477.501 521.379 479.831 513.916 480 506.25 480 500.383 477.849 495.39 475.952 490.985ZM462.788 483.124 467.212 483.124C467.316 484.191 467.509 485.247 467.789 486.281L462.211 486.281C462.491 485.247 462.684 484.191 462.788 483.124ZM464.657 462 465.343 462C467.794 462 469.2 463.952 469.2 467.354 469.149 468.966 468.891 470.566 468.434 472.113 468.001 473.762 467.667 475.435 467.434 477.124L462.567 477.124C462.334 475.435 462 473.762 461.567 472.113 461.11 470.566 460.852 468.966 460.801 467.354 460.8 463.952 462.206 462 464.657 462ZM468.586 524C467.633 524.658 466.501 525.007 465.343 525L464.657 525C463.502 525.006 462.372 524.66 461.419 524.008 460.41 522.443 456 515.1 456 506.25 456 501.621 457.809 497.42 459.559 493.359 459.714 492.997 459.868 492.639 460.021 492.281L469.979 492.281C470.132 492.639 470.286 492.997 470.441 493.359 472.191 497.42 474 501.621 474 506.25 474 515.092 469.6 522.432 468.586 524Z"/></g></svg>