<svg width="96" height="96" xmlns="http://www.w3.org/2000/svg" xmlns:xlink="http://www.w3.org/1999/xlink" overflow="hidden"><defs><clipPath id="clip0"><rect x="405" y="41" width="96" height="96"/></clipPath></defs><g clip-path="url(#clip0)" transform="translate(-405 -41)"><path d="M491 96.1C493.9 91.9 493.7 86.2 490.5 82.2 490.9 81 491.1 79.8 491.1 78.6 491.1 72.9 487 68.1 481.5 67 479.8 62.1 475.3 58.9 470.1 58.9 469.2 58.9 468.2 59 467.3 59.2 465.2 56.7 462.1 55.2 458.9 54.9 455.6 54.7 452.4 55.8 450 58 446.9 55.9 443 55.3 439.5 56.4 435.9 57.5 433.1 60.2 431.8 63.8 431.6 63.8 431.3 63.8 431.1 63.8 424.5 63.8 419.2 69 419.1 75.6 419.1 75.8 419.1 76 419.1 76.2 415.1 78.4 412.8 82.7 413.1 87.3 413.5 93.6 419.1 98.3 425.5 98.3L441 98.3C447.6 98.3 453 103.6 453.1 110.2L453.1 123 461 123 461 114C461 113.6 461 113.1 461 112.7 461 109 460.9 104.3 463.5 101.3 465.1 99.6 466.9 98.1 468.8 96.8 470.3 95.9 471.6 94.8 472.7 93.5 473.2 92.7 473.7 91.9 474 91.1 471.9 90.3 469.7 90 467.5 90.3 466.4 90.4 465.4 89.7 465.2 88.6 465.1 87.5 465.8 86.5 466.9 86.3 469.6 85.9 472.3 86.2 474.9 87.2 474.9 86.9 474.9 86.7 475 86.4 475.1 84.8 474.9 83.2 474.4 81.7 473 78.1 469.5 76.5 466.2 75.2 465.6 75 465 74.8 464.2 74.6L463.6 74.4 463.5 74.4C462.7 74.5 462 74.7 461.2 75L460.3 75.2 459.3 75.4C457.6 77.4 456.7 80 456.9 82.7 457.1 85.4 458.4 87.8 460.4 89.5 461.2 90.2 461.2 91.4 460.6 92.3 460 93 458.8 93.1 458 92.5 456.8 91.5 455.8 90.2 455 88.8L454.8 88.8C452 88.3 448.8 87.8 446.2 86.1 445.3 85.5 445.1 84.3 445.7 83.4 446.3 82.5 447.5 82.2 448.4 82.8 449.9 83.7 451.6 84.3 453.4 84.5 453.2 84 453.1 83.5 453 82.9 452.8 80.7 453.2 78.4 454.1 76.4 452.7 76.6 451.4 76.7 450 76.7 448.8 76.7 447.6 76.6 446.4 76.4 444.2 79.1 441.1 81.1 437.7 81.9 433.2 84.2 429 87.1 429 92 429 93.1 428.1 94 427 94 425.9 94 425 93.1 425 92 425.1 88.2 426.8 84.7 429.7 82.3 427.3 82 425.1 81 423.5 79.2 422.8 78.3 423 77.1 423.8 76.4 424.6 75.7 425.9 75.8 426.6 76.6 427.4 77.6 429.7 78.5 433 78.4 436.3 78.4 439.6 77.2 442.1 75 439.2 73.8 436.8 71.6 435.3 68.8 434.7 67.8 435.1 66.6 436 66.1 437 65.5 438.2 65.9 438.7 66.8 441.7 72.2 448 73.7 457.9 71.4 456.1 69.9 454.8 67.5 454.9 63.7 454.9 62.6 455.9 61.7 457 61.8 458.1 61.8 459 62.8 458.9 63.9 458.7 68.4 461.2 69.3 465.2 70.5 465.8 70.7 466.4 70.8 467 71 468.1 68.5 470.3 66.6 473 65.9 474.1 65.6 475.2 66.3 475.5 67.4 475.8 68.5 475.1 69.6 474 69.9 472.6 70.3 471.5 71.2 470.8 72.5 470.8 72.6 470.8 72.6 470.8 72.7 473.9 74.2 476.6 76.4 478 80.1 478.3 80.9 478.5 81.7 478.6 82.5 479 82.2 479.3 81.8 479.5 81.3 480.2 79.8 480.7 78.3 480.9 76.6 481 75.9 481.5 75.3 482.2 75 482.9 74.7 483.7 74.9 484.2 75.4 484.8 75.9 485 76.6 484.8 77.4 484.5 79.4 483.9 81.4 482.9 83.2 481.9 84.9 480.4 86.3 478.6 87.3 478.4 89.8 477.6 92.3 476.4 94.5 477.7 96 479.1 97.3 480.8 98.3 481.4 98.7 481.8 99.4 481.8 100.1 481.8 100.8 481.4 101.5 480.7 101.8 480 102.1 479.3 102.1 478.7 101.7 477 100.6 475.4 99.2 474 97.7 473 98.5 471.9 99.3 470.9 100 469.2 101.1 467.7 102.3 466.4 103.8 464.8 105.7 464.9 109.4 464.9 112.6 464.9 113.1 464.9 113.5 464.9 114L464.9 123 472.9 123C472.9 110 479.1 109.3 479.9 109.1 482.5 108.4 489.4 104.8 490.9 97.4 491.1 97 491 96.5 491 96.1 490.9 96.1 490.9 96.1 491 96.1Z"/></g></svg>