<svg width="96" height="96" xmlns="http://www.w3.org/2000/svg" xmlns:xlink="http://www.w3.org/1999/xlink" overflow="hidden"><defs><clipPath id="clip0"><rect x="561" y="337" width="96" height="96"/></clipPath></defs><g clip-path="url(#clip0)" transform="translate(-561 -337)"><path d="M635.8 358.1C621 343.3 596.9 343.3 582.1 358.1 567.3 373 567.3 397 582.1 411.9 597 426.7 621 426.6 635.8 411.8 650.6 396.9 650.6 373 635.8 358.1 635.8 358.1 635.8 358.1 635.8 358.1ZM607 421C598.5 420.6 590.4 417.1 584.2 411.2L609 386.4 617.5 394.9C610.8 401.9 607 411.3 607 421L607 421ZM618.9 396.3 633.7 411.1C627.1 417.5 618.2 421 609 421 609 411.8 612.6 403 618.9 396.3ZM620.3 394.9C626.9 388.6 635.8 385 645 385.1 645 394.3 641.5 403.1 635.2 409.8L620.3 394.9ZM644.9 383.1C635.2 383.1 625.9 386.9 618.9 393.5L610.4 385 635.1 360.3C641 366.5 644.5 374.6 644.9 383.1ZM596.9 374.4C590.4 380.6 581.9 384.1 573 384.2 573.2 375.3 576.7 366.7 582.8 360.3L596.9 374.4ZM584.2 358.9C590.7 352.7 599.2 349.2 608.1 349.1 608 358 604.5 366.5 598.3 373L584.2 358.9ZM610.2 349C619 349.3 627.4 352.8 633.7 358.8L609 383.6 599.8 374.4C606.3 367.5 610 358.5 610.2 349ZM573 386.2C582.5 386 591.5 382.3 598.3 375.8L607.5 385 582.8 409.7C576.8 403.4 573.3 395 573 386.2Z"/></g></svg>