<svg width="96" height="96" xmlns="http://www.w3.org/2000/svg" xmlns:xlink="http://www.w3.org/1999/xlink" overflow="hidden"><defs><clipPath id="clip0"><rect x="285" y="234" width="96" height="96"/></clipPath></defs><g clip-path="url(#clip0)" transform="translate(-285 -234)"><path d="M373.2 251.8C372.9 249.5 370.6 247.7 366.1 246.3 365.6 246.2 365.1 246.5 365 246.9 364.9 247.4 365.1 247.9 365.6 248 369.2 249.1 371.2 250.4 371.4 251.9 371.6 253.3 369.5 255 369.2 255.2 369.2 255.2 369.2 255.2 369.2 255.2 369.2 255.2 369.2 255.2 369.2 255.2 369.8 254.2 370 253.1 369.8 252 369.1 249.1 366.7 249.2 364.9 249.3 363.4 249.4 361.9 249.4 360.9 248.3 360.6 247.9 360 247.9 359.6 248.3 359.2 248.6 359.2 249.2 359.6 249.6 361.2 251.3 363.3 251.2 365 251.2 367 251.1 367.7 251.2 368 252.5 368.5 254.7 365.9 255.6 365.9 255.6 365.9 255.6 358.4 255.4 357.7 254.9 356.7 254.2 357.6 249.6 355.4 247.9 354.5 247.2 352.8 247.1 351.3 247.2 350.9 245.1 349.3 239 343.4 236.8 343.2 236.7 342.9 236.8 342.8 237.1 342.7 237.2 342.8 237.4 342.8 237.5 343.9 239.2 346.6 243.8 346.3 245.9 345.2 245.7 341.5 244.7 339.2 238.3 339.2 238.1 339 238 338.8 238 338.6 238 338.5 238 338.4 238.2 338.4 238.3 334.7 243.1 339.2 249.8 339.3 249.9 339.2 250 339.1 250 336.9 248.7 335.3 246.7 334.3 244.3 334.2 244.1 334 244 333.8 244 333.6 244 333.4 244.1 333.4 244.3 333.3 244.5 331.9 250.9 335.2 254.5 335.3 254.6 335.2 254.7 335.1 254.7 333.2 253.8 331 253.2 328.9 253 328.4 252.3 327.9 251.7 327.7 251.4 326.2 249.7 324.3 248.5 322.1 247.9 321.8 247.8 321.5 247.9 321.4 248.2 321.2 248.4 321.2 248.8 321.4 249 322.2 250.2 322.7 251.7 322.7 253.1 321.4 253.3 320.1 253.5 318.8 253.9 318.2 253.5 317.7 253.1 317.4 253 315.6 251.9 313.5 251.4 311.4 251.5 311.1 251.5 310.9 251.7 310.8 252 310.7 252.3 310.8 252.5 311 252.7 312.2 253.6 313 254.9 313.4 256.3 312.3 257 311.3 257.7 310.4 258.6 309.7 258.4 308.9 258.2 308.6 258.1 306.5 257.7 304.4 257.9 302.4 258.7 302.2 258.8 302 259.1 302 259.3 302 259.6 302.2 259.8 302.5 259.9 304.2 260.5 305.7 261.7 306.6 263.3 305.9 264.6 305.5 265.9 305.2 267.3 304.8 267.4 304.5 267.4 304.4 267.5 302.3 268 300.5 269 299 270.5 298.8 270.7 298.8 271 298.9 271.2 299 271.4 299.3 271.6 299.6 271.6 302 271.4 304.3 272.4 305.9 274.2 306.2 275.1 306.5 275.9 306.9 276.8 306.8 276.9 306.8 276.9 306.7 277 305.2 278.5 304.3 280.4 303.9 282.5 303.9 282.8 304 283 304.2 283.2 304.4 283.3 304.7 283.3 305 283.1 306.5 281.9 308.5 281.3 310.4 281.5 311.4 282.4 312.4 283.3 313.6 284 312.9 285.9 312.6 287.9 313 289.9 313.1 290.2 313.3 290.4 313.5 290.4 313.8 290.4 314 290.3 314.2 290.1 315.2 288.5 316.7 287.3 318.5 286.8 319.7 287.3 320.9 287.8 322.1 288.3 321.9 290 322.2 291.7 322.8 293.2 322.9 293.5 323.2 293.6 323.4 293.6 323.7 293.6 323.9 293.4 324 293.1 324.5 291.8 325.4 290.6 326.5 289.7 327.8 290.1 329.2 290.5 330.5 290.9 330.5 292.5 330.9 294 331.6 295.5 331.7 295.7 332 295.9 332.3 295.8 332.6 295.8 332.8 295.6 332.9 295.3 333.2 294.1 333.9 293 334.8 292.1 336.3 292.5 337.8 292.9 339.2 293.4 339 294.8 339.1 296.3 339.5 297.7 339.6 297.9 339.8 298.1 340 298.1 340.2 298.1 340.5 298 340.5 297.7 341 296.5 341.9 295.4 343.1 294.7 344.9 295.3 346.5 296.2 348.1 297.2 347.4 297.8 346.7 298.4 346.2 299.2 346.1 299.4 346.1 299.7 346.2 299.9 346.4 300.1 346.6 300.2 346.9 300.1 348 299.8 349.2 299.8 350.3 300.1 350.5 300.9 350.5 301.8 350.3 302.6 350 304.1 349 305.3 347.7 305.9 346.9 304.7 345.8 303.7 344.5 303 344.3 302.9 344 302.9 343.8 303.1 343.6 303.3 343.5 303.6 343.6 303.8 343.9 304.6 344 305.5 344 306.3 342.2 306.1 340.4 305.6 338.6 305 338.5 304.8 338.5 304.6 338.4 304.5 337.7 302.6 336.5 301 334.9 299.8 334.7 299.7 334.4 299.7 334.2 299.8 334 300 333.9 300.2 333.9 300.5 334.1 301.4 334.1 302.4 333.9 303.4 332.2 302.7 330.5 302 328.7 301.4 328.7 301.3 328.6 301.2 328.6 301.2 327.9 299.3 326.7 297.7 325.1 296.4 324.9 296.3 324.6 296.2 324.4 296.4 324.2 296.6 324.1 296.8 324.1 297.1 324.3 298 324.3 298.9 324.1 299.8 322.3 299.2 320.5 298.7 318.7 298.3 318.5 298 318.4 297.8 318.3 297.7 317 296.1 315.4 295 313.5 294.3 313.3 294.2 313 294.3 312.8 294.5 312.6 294.7 312.6 295 312.8 295.2 313.3 296 313.6 296.8 313.7 297.7 311.9 297.7 310.1 297.9 308.3 298.4 308.1 298.3 308 298.2 307.9 298.1 306.1 297.2 304.1 296.8 302.1 296.9 301.8 296.9 301.6 297.1 301.6 297.4 301.5 297.7 301.6 297.9 301.9 298.1 302.7 298.7 303.3 299.4 303.8 300.2 302.4 301 301.1 302.1 300 303.3 298.2 303.3 296.5 303.7 295 304.6 294.8 304.7 294.7 305 294.7 305.2 294.8 305.5 295 305.7 295.2 305.7 296.1 305.9 296.9 306.2 297.6 306.7 296.7 308.4 296.1 310.3 295.8 312.2L295.7 312.2C290 313.2 291.6 320.8 292 322.4 292 322.5 292.1 322.5 292.2 322.4 292.9 320.8 293.9 319.4 295.3 318.4 295.1 319.1 295 319.8 294.9 320.5 294.6 323.1 295.1 325.6 296.3 327.9 298.2 325.7 299.4 324.1 299.9 321.2 300 320.5 300.1 319.7 300.1 319 301.2 320.4 301.8 322 302 323.7 302 323.8 302.1 323.8 302.2 323.7 303 322.2 306.9 314.7 300.6 312.5 304 307.2 309.8 304.7 317.5 306.6 326 308.9 332.3 315.3 342.8 317 355 319 362.4 311.1 363.8 303.8 365.4 295.5 360.4 288.1 349.6 283.8 336.2 278.5 320.6 276.5 323.2 268.9 325.4 262.2 346.8 265.9 348.2 267.2L354.6 271.8C353.6 274.2 351.4 275.9 348.9 276.3 348.8 276.3 348.8 276.5 348.9 276.5 350.3 276.8 354.4 277.5 357 274.5 357 274.5 358.3 276 354.9 278.6 354.8 278.7 354.9 278.8 355 278.8 356.3 278.6 360.3 277.6 361.7 273.7 362.4 273.6 363.1 273.1 363.3 272.4 363.4 271.9 363.5 271.4 363.5 270.8 363.5 270.5 363.4 270.2 363.2 270 362.3 268.8 359.2 268.4 356.4 267.1L356.3 267.1C355.4 266.5 354.6 265.8 353.9 265 353 263.5 353.3 262.1 354.7 262.6 356.9 263.4 356.8 262.3 358.8 261.5 360.6 261.6 362.5 261.8 364.3 262.2L363.4 264.6C363.3 264.8 363.4 265 363.6 265 363.7 265 363.8 265 363.9 264.9L366.4 262.5C366.5 262.5 366.9 262.6 367 262.6 367.5 262.7 368.3 261.7 368.9 260.5 369.3 259.7 369.4 258.8 369.4 257.9 370.9 256.7 373.5 254.5 373.2 251.8ZM350 254C348.8 252.8 348.8 250.9 350 249.8 350 249.8 350 249.8 350 249.8L354.2 254.1C353 255.2 351.1 255.2 350 254Z"/></g></svg>