<svg width="96" height="96" xmlns="http://www.w3.org/2000/svg" xmlns:xlink="http://www.w3.org/1999/xlink" overflow="hidden"><defs><clipPath id="clip0"><rect x="670" y="237" width="96" height="96"/></clipPath></defs><g clip-path="url(#clip0)" transform="translate(-670 -237)"><path d="M744 277.5 724.5 277.5 718 258 711.5 277.5 692 277.5 706.9 290.5 701.1 310 718 298.3 734.9 310 729 290.5Z"/><path d="M718 254C716.9 254 716 253.1 716 252L716 245C716 243.9 716.9 243 718 243 719.1 243 720 243.9 720 245L720 252C720 253.1 719.1 254 718 254Z"/><path d="M718 327C716.9 327 716 326.1 716 325L716 311C716 309.9 716.9 309 718 309 719.1 309 720 309.9 720 311L720 325C720 326.1 719.1 327 718 327Z"/><path d="M683.9 279.5C683.8 279.5 683.7 279.5 683.6 279.5L677.7 278.5C676.6 278.3 675.9 277.3 676 276.2 676.2 275.1 677.2 274.4 678.3 274.5 678.3 274.5 678.3 274.5 678.4 274.5L684.3 275.5C685.4 275.7 686.1 276.7 685.9 277.8 685.7 278.8 684.9 279.5 683.9 279.5Z"/><path d="M703.2 268C702.7 268 702.2 267.8 701.8 267.4L691.7 257.4C690.9 256.6 690.9 255.4 691.7 254.6 692.5 253.8 693.7 253.8 694.5 254.6L704.6 264.7C705.4 265.5 705.4 266.7 704.6 267.5 704.2 267.8 703.7 268 703.2 268Z"/><path d="M752.7 300.8C752.4 300.8 752.1 300.7 751.8 300.6L740.3 295C739.3 294.5 738.9 293.3 739.4 292.3 739.9 291.3 741.1 290.9 742.1 291.4L753.6 297C754.6 297.5 755 298.7 754.5 299.7 754.1 300.4 753.4 300.8 752.7 300.8Z"/><path d="M683.2 300.8C682.1 300.8 681.2 299.9 681.2 298.8 681.2 298 681.6 297.3 682.3 297L693.8 291.4C694.8 290.9 696 291.3 696.5 292.3 697 293.3 696.6 294.5 695.6 295L684.1 300.6C683.8 300.7 683.5 300.8 683.2 300.8Z"/><path d="M694.6 320.5C693.5 320.5 692.6 319.6 692.6 318.5 692.6 318.1 692.7 317.7 692.9 317.4L695.9 312.8C696.5 311.9 697.7 311.6 698.7 312.2 699.6 312.8 699.9 314 699.3 315 699.3 315 699.3 315 699.3 315L696.3 319.6C695.9 320.2 695.3 320.5 694.6 320.5Z"/><path d="M751.4 279.5C750.3 279.5 749.4 278.6 749.4 277.5 749.4 276.5 750.1 275.7 751.1 275.5L757 274.5C758.1 274.3 759.1 275.1 759.3 276.2 759.5 277.3 758.7 278.3 757.7 278.5L751.8 279.5C751.6 279.5 751.5 279.5 751.4 279.5Z"/><path d="M732.1 268C731 268 730.1 267.1 730.1 266 730.1 265.5 730.3 265 730.7 264.6L740.8 254.5C741.6 253.7 742.8 253.7 743.6 254.5 744.4 255.3 744.4 256.5 743.6 257.3 743.6 257.3 743.6 257.3 743.6 257.3L733.5 267.5C733.2 267.8 732.7 268 732.1 268Z"/><path d="M740.7 320.5C740 320.5 739.4 320.2 739 319.6L736 315C735.4 314.1 735.6 312.8 736.5 312.2 737.4 311.6 738.7 311.8 739.3 312.7 739.3 312.7 739.3 312.8 739.4 312.8L742.4 317.4C743 318.3 742.7 319.6 741.8 320.2 741.5 320.4 741.1 320.5 740.7 320.5Z"/></g></svg>