<svg width="96" height="96" xmlns="http://www.w3.org/2000/svg" xmlns:xlink="http://www.w3.org/1999/xlink" overflow="hidden"><defs><clipPath id="clip0"><rect x="137" y="223" width="96" height="96"/></clipPath></defs><g clip-path="url(#clip0)" transform="translate(-137 -223)"><path d="M210.387 308.453 200.947 280.8 200.947 256.749C200.95 254.595 199.206 252.847 197.052 252.844 197.049 252.844 197.045 252.844 197.042 252.844L185.42 252.844C184.712 252.825 184.014 253.017 183.415 253.396L176.375 257.622 170.038 251.283 170.706 250.614C172.154 249.187 173.754 247.924 175.478 246.848 178.172 245.119 180.663 243.094 182.907 240.811L190.907 232.811 190.981 232.728C192.428 231.11 192.289 228.626 190.671 227.179 190.581 227.098 190.487 227.021 190.389 226.949 189.729 226.362 188.883 226.026 188 226 186.935 225.968 185.91 226.404 185.194 227.193L177.194 235.193C175.04 237.373 173.098 239.752 171.394 242.299 170.216 244.084 168.877 245.758 167.394 247.299L166.451 248.244C166.006 248.077 165.534 247.994 165.059 248 164.063 248.013 163.115 248.434 162.438 249.164 161.678 249.92 161.258 250.952 161.274 252.024 161.288 252.426 161.365 252.822 161.505 253.199L159.7 255.011C158.921 255.792 158.921 257.056 159.7 257.837L160.186 258.323 160.186 258.323C160.561 258.699 161.07 258.909 161.6 258.908L161.6 258.908C162.131 258.909 162.64 258.698 163.014 258.321L164.56 256.771 173.091 265.3C173.806 266.048 174.797 266.47 175.832 266.465 176.54 266.483 177.238 266.291 177.837 265.912L180.786 264.143 180.786 264.143 180.806 264.131 183.548 262.485 183.548 280.9 174.108 308.55C173.246 311.12 174.63 313.902 177.2 314.764 177.212 314.768 177.224 314.772 177.236 314.776 177.725 314.91 178.229 314.985 178.736 315 180.826 315.012 182.69 313.686 183.363 311.707L192.285 285.546C192.291 285.531 192.299 285.531 192.304 285.546L201.231 311.717C201.907 313.691 203.768 315.013 205.855 315 206.362 314.985 206.866 314.91 207.355 314.777L207.486 314.735C209.962 313.737 211.233 310.985 210.387 308.453ZM173.025 243.453C174.663 241 176.532 238.709 178.606 236.612L186.668 228.543C187.012 228.177 187.498 227.979 188 228 189.081 227.976 189.976 228.832 190 229.913 190.001 229.942 190.001 229.971 190 230 189.967 230.523 189.775 231.024 189.45 231.436L181.493 239.4C179.344 241.592 176.953 243.534 174.367 245.188 172.534 246.336 170.832 247.682 169.291 249.2L168.624 249.869 168.138 249.383 168.806 248.713C170.371 247.093 171.784 245.331 173.025 243.451ZM161.6 256.91 161.6 256.91 161.114 256.424 162.662 254.873 163.149 255.359ZM206.8 312.853C206.491 312.936 206.173 312.985 205.853 313 204.617 313.018 203.511 312.234 203.119 311.062L193.242 282.1C193.063 281.578 192.494 281.299 191.972 281.478 191.68 281.578 191.45 281.808 191.35 282.1L181.475 311.052C181.085 312.229 179.977 313.017 178.737 313 178.419 312.986 178.103 312.938 177.795 312.857 176.289 312.337 175.486 310.697 176 309.189L185.492 281.389C185.527 281.285 185.545 281.176 185.545 281.066L185.545 261.271 187.161 260.295C187.634 260.009 187.785 259.395 187.5 258.922 187.215 258.449 186.6 258.297 186.127 258.583L179.806 262.4 176.77 264.223C176.741 264.241 176.712 264.26 176.685 264.281 176.423 264.421 176.128 264.486 175.832 264.468 175.328 264.471 174.846 264.26 174.505 263.889L163.821 253.2C163.478 252.886 163.281 252.444 163.274 251.979 163.269 251.437 163.489 250.917 163.882 250.544 164.196 250.204 164.637 250.007 165.1 250 165.626 249.995 166.131 250.204 166.5 250.579L175.507 259.588C175.832 259.913 176.335 259.974 176.729 259.738L184.477 255.088C184.507 255.071 184.535 255.052 184.562 255.031 184.824 254.891 185.119 254.826 185.415 254.844L197.042 254.844C198.071 254.82 198.923 255.635 198.947 256.664 198.948 256.693 198.948 256.721 198.947 256.75L198.947 280.967C198.947 281.077 198.965 281.186 199 281.29L208.489 309.09C208.97 310.592 208.242 312.215 206.8 312.853Z"/><path d="M185.4 244.006C185.4 247.872 188.534 251.006 192.4 251.006 196.266 251.006 199.4 247.872 199.4 244.006 199.4 240.14 196.266 237.006 192.4 237.006 188.534 237.006 185.4 240.14 185.4 244.006ZM192.4 239.006C195.161 239.006 197.4 241.245 197.4 244.006 197.4 246.767 195.161 249.006 192.4 249.006 189.639 249.006 187.4 246.767 187.4 244.006 187.401 241.244 189.638 239.004 192.4 239Z"/></g></svg>