<svg width="96" height="96" xmlns="http://www.w3.org/2000/svg" xmlns:xlink="http://www.w3.org/1999/xlink" overflow="hidden"><defs><clipPath id="clip0"><rect x="137" y="330" width="96" height="96"/></clipPath></defs><g clip-path="url(#clip0)" transform="translate(-137 -330)"><path d="M185 340C164 340 147 357 147 378 147 399 164 416 185 416 206 416 223 399 223 378 223 357 206 340 185 340ZM151 378C151 369.1 154.4 361.1 160 355 160.9 355.5 161.8 356.3 162 357L162 363.3C162 363.7 162.1 364.2 162.4 364.5L169 373 169.5 372.5C169.8 372.2 169.9 371.7 169.7 371.3L168.5 369.3C168 368.5 168.8 367.5 169.7 367.8 170 367.9 170.2 368.1 170.3 368.3L173.6 374.8C174 375.5 174.6 376.1 175.3 376.3L179.7 377.8C180 377.9 180.2 378.1 180.3 378.3L180.6 378.8C180.9 379.5 181.6 379.9 182.4 379.9L183.6 379.9C183.9 379.9 184.2 380.1 184.4 380.3L185.7 382.2C186 382.6 186.4 382.9 186.9 383L189 383.5C189.6 383.6 189.9 384.3 189.7 384.8 189.7 384.8 188.1 386.4 188.1 388.7 188.1 395.3 194.1 397.2 194.1 398.7 194.1 402.8 193.5 408.5 193.2 410.7 190.6 411.3 187.9 411.7 185.1 411.7 166.3 412 151 396.7 151 378ZM197.8 409.5C200 407.6 203.7 404.4 205 403 206.7 401.1 207 398 207 398 207 398 214 396.1 214 391 214 387.5 207 386 207 386 205.8 382.1 199.9 380 195 380 193.9 380 190 382 190 382L188 381 188 378C188 377.4 187.6 377 187 377L185 377 185 374C185 373.4 184.6 373 184 373L183 373 181.9 373.7C180.9 374.4 179.5 374 179 372.9 179 372.9 178 371.5 178 370.9 178 366.6 183 366.9 183 366.9L185.2 366.9C185.7 366.9 186.1 367.2 186.2 367.7L186.8 370.2C186.9 370.6 187.3 371 187.8 371L188.2 371C188.7 371 189.1 370.7 189.2 370.2L189.9 366.5C190 366.2 190.1 365.9 190.3 365.6L193.1 362.1C193.7 361.4 194.5 361 195.4 361L198 361C198.6 361 199 360.6 199 360L199 359 198.7 358.7C198.1 358.1 198.5 357 199.4 357L200 357C200.6 357 201 357.4 201 358 201 358.6 201.4 359 202 359L203 359 203.6 356.4C203.8 355.5 203.4 354.7 202.7 354.2L194.2 349.1C194.1 349 193.9 349 193.7 349L192 349C190.9 349 190 349.9 190 351L190 352C190 352.6 189.6 353 189 353L188 353 187 352 184 352C183.4 352 183 351.6 183 351L183 348.5C183 348.2 183.1 347.9 183.4 347.7L189.8 345 190.8 346.7C191 346.9 191.2 347 191.5 347L194 347C194.6 347 195 346.6 195 346L195 345.5C208.9 349.8 219 362.7 219 378 219 392.2 210.2 404.4 197.8 409.5Z"/><path d="M197.3 373.8 192.5 372.2C192.1 372.1 191.8 372.1 191.4 372.2L188 373C187.7 373.2 187.6 373.6 188 374L192.6 374C192.9 374 193.1 374 193.3 374.1L196.8 375.5C197.4 375.7 198 375.3 198 374.7 198 374.3 197.7 373.9 197.3 373.8Z"/></g></svg>