<svg width="96" height="96" xmlns="http://www.w3.org/2000/svg" xmlns:xlink="http://www.w3.org/1999/xlink" overflow="hidden"><defs><clipPath id="clip0"><rect x="673" y="141" width="96" height="96"/></clipPath></defs><g clip-path="url(#clip0)" transform="translate(-673 -141)"><path d="M740.89 183.39C743.6 181.56 746.71 179.51 745.89 176.39 745.83 176.15 744.95 176.15 744.89 176.39 744.48 178.14 744.06 179.72 739.89 182.39 739.65 182.54 740.53 183.63 740.89 183.39Z"/><path d="M728.9 201.94C729.14 201.74 731.29 200.94 731.5 200.52 731.865 199.797 732.376 199.157 733 198.64 733.167 198.545 733.358 198.499 733.55 198.51L733.89 198.84C734.21 199.044 734.517 199.268 734.81 199.51 734.91 199.64 734.73 199.76 734.73 199.76L734.73 199.76 734.31 199.85C734.343 199.958 734.37 200.068 734.39 200.18 734.39 200.4 733.47 200.85 733.47 200.85L733.89 201.35C733.89 201.35 734.97 201.51 734.56 202.19L733.56 203.28 733.06 204.37C733.06 204.37 733.06 205.13 732.81 205.29 732.56 205.45 732.47 205.21 732.06 205.38 731.103 205.495 730.132 205.364 729.24 205 729.145 204.731 729.114 204.443 729.15 204.16 729.15 204.16 728.95 204.16 728.69 203.78 728.38 203.181 728.463 202.454 728.9 201.94Z"/><path d="M725.05 206.47C724.125 205.69 723.281 204.819 722.53 203.87L721.95 203.37 720.1 201.1 719.43 200.43C719.43 200.43 719.16 200.18 719.35 200.1 719.86 200.043 720.376 200.101 720.86 200.27 721.15 200.41 722.68 202.2 722.95 202.19 723.22 202.18 723.4 202.07 723.62 202.19 723.952 202.471 724.259 202.778 724.54 203.11 724.72 203.176 724.891 203.263 725.05 203.37 725.201 203.6 725.312 203.853 725.38 204.12 725.565 204.431 725.827 204.689 726.14 204.87 726.74 205.29 726.47 205.29 726.47 205.29L726.3 206.05C726.3 206.05 726.48 206.8 726.3 206.97 726.12 207.14 725.94 207.06 725.05 206.47Z"/><path d="M720.7 150C699.713 150 682.7 167.013 682.7 188 682.7 208.987 699.713 226 720.7 226 741.687 226 758.7 208.987 758.7 188 758.7 167.013 741.687 150 720.7 150ZM738.93 159.32C738.79 159.44 738.78 159.69 738.78 160.21 738.78 161.21 736.78 160.21 734.78 160.21 732.78 160.21 729.78 161.21 728.78 161.21 727.78 161.21 726.78 162.21 725.78 162.21 724.78 162.21 725.62 160.76 724.78 160.21 719.62 156.8 713.78 162.21 712.78 161.21 711.78 160.21 707.78 162.21 706.05 162.33 704.32 162.45 702.78 162.21 703.78 161.21 704.78 160.21 703.78 160.21 702.78 159.21L702.72 159.16C713.81 152.223 727.902 152.285 738.93 159.32ZM742.75 162.15C757.023 174.284 758.757 195.691 746.623 209.964 746.487 210.124 746.349 210.283 746.21 210.44 746.04 210.53 746.03 210.44 746.01 210.31 745.99 210.18 746.01 209.89 746.17 209.89 746.33 209.89 746.53 209.79 746.55 209.68 746.57 209.57 746.61 208.68 746.64 208.63 746.67 208.58 746.49 208.26 746.47 208.21 746.319 207.781 746.205 207.339 746.13 206.89 746.13 206.72 746.13 206.58 746.13 206.59 745.894 206.814 745.695 207.074 745.54 207.36 745.37 207.81 745.3 208.28 745.15 208.84 745.061 209.568 744.635 210.212 744 210.58 743.41 210.85 742.31 208.49 742.31 208.42 742.311 208.354 742.34 208.293 742.39 208.25 742.57 208.147 742.743 208.033 742.91 207.91 743.079 207.797 743.234 207.662 743.37 207.51 743.37 207.34 743.24 207.09 743.15 207.16 743.052 207.231 742.931 207.263 742.81 207.25 742.706 207.209 742.618 207.135 742.56 207.04 742.239 206.89 741.904 206.773 741.56 206.69 741.41 206.69 741.31 206.59 741.2 206.69 741.09 206.79 740.94 207.32 740.94 207.32 740.94 207.32 740.33 208.02 740.33 208.02 740.33 208.02 738.33 209.6 737.87 209.53 737.41 209.46 737 210 737 210 736.71 210.06 736 210.92 735.9 211 735.8 211.08 732.65 213.17 731.99 213.5 731.68 213.65 731.08 213.58 730.99 213.68 730.412 214.35 729.995 215.144 729.77 216 729.77 216.3 729.14 216.44 729.08 216.86 728.98 217.53 729.5 218.25 729.5 218.57 729.522 218.779 729.522 218.991 729.5 219.2 729.5 219.2 729.18 219.38 729.16 219.45 729.127 219.502 729.127 219.568 729.16 219.62 729.382 219.724 729.613 219.808 729.85 219.87 730.1 219.87 730.2 219.38 730.17 218.82L730.75 218.58C731.225 218.294 731.797 218.218 732.33 218.37 733.99 218.65 734.22 218.78 734.68 218.62 735.008 218.541 735.343 218.494 735.68 218.48 718.824 226.755 698.451 219.798 690.177 202.942 688.381 199.285 687.258 195.335 686.86 191.28 689.12 191.98 693.44 191.65 697.48 188.2 698.79 187.08 697.37 186.47 696.33 185.67 695.29 184.87 701.43 186.07 702.47 186.67 703.51 187.27 703.02 188.34 703.1 188.67 703.74 190.633 704.512 192.551 705.41 194.41 706.85 197.41 707.32 198.31 707.88 197.99 708.633 197.24 708.963 196.163 708.76 195.12 708.6 193.85 708.6 192.65 709.29 193.03 709.98 193.41 712.58 191.22 713.82 190.26 715.06 189.3 715.13 189.55 715.69 188.51 716.25 187.47 716.01 188.67 717.25 190.09 718.49 191.51 718.88 191.62 718.68 192.02 718.48 192.42 718.24 193.69 719.27 194.09 719.479 194.183 719.724 194.126 719.87 193.95 719.72 195.61 720.07 198.21 722.62 201.18 723.71 202.45 725.17 203.25 725.62 202.91 726.07 202.57 722.05 196.91 722.69 195.28 723.33 193.65 723.96 195.84 725.29 196.63 726.62 197.42 726.29 197.83 728.03 196.63 729.77 195.43 728.27 193.76 726.91 192.41 725.55 191.06 726.67 190.57 727.72 189.75 728.77 188.93 728.35 190.75 729.06 190.81 729.77 190.87 730.58 189.06 732.33 188.66 734.08 188.26 734.56 186.27 735.26 184.89 735.96 183.51 734.4 182.69 733.26 181.25 732.12 179.81 735.53 178 736 179 736.47 180 736.23 181 737.26 181.73 738.29 182.46 738.69 180.44 738.26 179.73 737.83 179.02 737.26 179.73 737.26 177.73 737.26 175.73 740.26 173.73 741.26 173.73 742.26 173.73 741.26 170.73 740.26 169.52 739.26 168.31 737.26 168.73 736.75 168.97 736.24 169.21 737.31 167.73 737.87 166.26 738.43 164.79 740.31 165.73 740.31 165.73L741.31 164.73C741.31 164.73 741.78 166.35 742.25 166.42 742.72 166.49 742.81 165.23 742.81 164.23L742.81 162.48Z"/><path d="M741.72 199.87 744.22 203.2C744.509 203.59 745.036 203.716 745.47 203.5L746.72 202.87 748.4 203.43C748.923 203.607 749.491 203.327 749.668 202.805 749.709 202.684 749.727 202.557 749.72 202.43L749.72 202.43C749.72 202.077 749.534 201.75 749.23 201.57L745 199C744.841 198.91 744.662 198.862 744.48 198.86 744.48 198.86 741.94 198.61 741.76 198.86 741.58 199.11 741.72 199.87 741.72 199.87Z"/></g></svg>