<svg width="96" height="96" xmlns="http://www.w3.org/2000/svg" xmlns:xlink="http://www.w3.org/1999/xlink" overflow="hidden"><defs><clipPath id="clip0"><rect x="678" y="329" width="96" height="96"/></clipPath></defs><g clip-path="url(#clip0)" transform="translate(-678 -329)"><path d="M692.8 377C694.1 383.2 697.1 388.2 702 390.9L702 395C702 396.1 702.9 397 704 397 705.1 397 706 396.1 706 395L706 392.4 746 392.4 746 395C746 396.1 746.9 397 748 397 749.1 397 750 396.1 750 395L750 390.9C754.9 388.2 757.9 383.2 759.2 377L692.8 377Z"/><path d="M764 369 702 369 702 365C702 363.1 703.4 361.4 705.3 361.1 707.2 360.8 709.1 361.9 709.7 363.7 709.9 364.4 710.5 364.9 711.2 365.1 711.9 365.2 712.7 365 713.1 364.4 713.6 363.8 713.7 363.1 713.4 362.4 712.1 358.7 708.3 356.5 704.5 357.2 700.7 357.9 697.9 361.2 697.9 365.1L697.9 369.1 688 369.1C686.9 369.1 686 370 686 371.1 686 372.2 686.9 373.1 688 373.1L764 373.1C765.1 373.1 766 372.2 766 371.1 766 370 765.1 369 764 369Z"/></g></svg>