<svg width="96" height="96" xmlns="http://www.w3.org/2000/svg" xmlns:xlink="http://www.w3.org/1999/xlink" overflow="hidden"><defs><clipPath id="clip0"><rect x="24" y="413" width="96" height="96"/></clipPath></defs><g clip-path="url(#clip0)" transform="translate(-24 -413)"><path d="M61.3 447.5C67.5 440.6 70.3 431.7 69.8 423 61.4 423.5 53.2 426.7 46.5 432.7L61.3 447.5Z"/><path d="M84.8 470.9 100.3 486.4C106.5 479.6 109.7 471.1 110 462.5 101 461.8 91.9 464.6 84.8 470.9Z"/><path d="M72 458.2 97.4 432.8C90.7 426.7 82.3 423.5 73.9 423.1 74.4 432.8 71.2 442.7 64.2 450.4L72 458.2Z"/><path d="M74.8 461 81.9 468.1C89.8 461 99.9 457.8 109.9 458.4 109.3 450.2 106.1 442.1 100.2 435.5L74.8 461Z"/><path d="M81.9 473.8C75.6 480.9 72.8 490 73.5 499 82.1 498.7 90.6 495.4 97.4 489.3L81.9 473.8Z"/><path d="M79.1 470.9 72 463.8 46.6 489.2C53.1 495.1 61.2 498.3 69.5 498.9 68.8 489 72 478.8 79.1 470.9Z"/><path d="M43.7 435.6C37.7 442.2 34.5 450.5 34 458.9 42.7 459.4 51.5 456.5 58.5 450.4L43.7 435.6Z"/><path d="M69.2 461 61.4 453.2C53.7 460.2 43.8 463.4 34.1 462.9 34.5 471.4 37.8 479.7 43.8 486.4L69.2 461Z"/></g></svg>