<svg width="96" height="96" xmlns="http://www.w3.org/2000/svg" xmlns:xlink="http://www.w3.org/1999/xlink" overflow="hidden"><defs><clipPath id="clip0"><rect x="261" y="431" width="96" height="96"/></clipPath></defs><g clip-path="url(#clip0)" transform="translate(-261 -431)"><path d="M333.33 470.61C335.717 470.255 337.94 471.903 338.294 474.291 338.31 474.397 338.322 474.503 338.33 474.61 338.566 477.09 336.748 479.291 334.268 479.528 331.789 479.764 329.587 477.946 329.351 475.466 329.231 474.213 329.641 472.968 330.48 472.03 331.216 471.214 332.235 470.706 333.33 470.61Z"/><path d="M333.33 451.61C335.717 451.255 337.94 452.903 338.294 455.291 338.31 455.397 338.322 455.503 338.33 455.61 338.566 458.09 336.748 460.291 334.268 460.528 331.789 460.764 329.587 458.946 329.351 456.466 329.231 455.213 329.641 453.968 330.48 453.03 331.216 452.214 332.235 451.706 333.33 451.61Z"/><path d="M323 455.72C320.9 451.902 317.673 448.826 313.76 446.91 309.031 444.631 303.784 443.644 298.55 444.05L298.45 444.05C282.92 446 280.59 456.35 280.66 459.69 280.93 468 286 473 291.93 473 296.69 473 302.49 466.85 298.55 460.51 293.84 453.36 287 460 286.18 457 286 456.3 288.92 447 301.67 447.53L301.82 447.53C309.48 448.63 311.88 454.78 312.91 462 314.91 477 304.97 490.47 297.91 497.54 292.29 503.61 283 509.14 279.12 511.8 278.712 512.074 278.564 512.604 278.77 513.05L278.77 513.05C278.987 513.558 279.574 513.794 280.082 513.577 280.095 513.572 280.108 513.566 280.12 513.56 299.71 504.45 323.78 488.07 325.99 470.56 326.587 465.422 325.54 460.226 323 455.72Z"/></g></svg>