<svg width="96" height="96" xmlns="http://www.w3.org/2000/svg" xmlns:xlink="http://www.w3.org/1999/xlink" overflow="hidden"><defs><clipPath id="clip0"><rect x="29" y="322" width="96" height="96"/></clipPath></defs><g clip-path="url(#clip0)" transform="translate(-29 -322)"><path d="M77 336C58.2223 336 43 351.222 43 370 43 388.778 58.2223 404 77 404 95.7777 404 111 388.778 111 370 110.979 351.231 95.769 336.021 77 336ZM107.387 359.987 95.129 359.987C94.0244 359.987 93.129 359.092 93.129 357.987 93.129 356.882 94.0244 355.987 95.129 355.987L105.762 355.987C106.393 357.282 106.936 358.618 107.387 359.987ZM64.5 362 82.5 362C83.6046 362 84.5 362.895 84.5 364 84.5 365.105 83.6046 366 82.5 366L45.259 366C45.9945 360.141 48.3447 354.601 52.047 350L71.747 350C72.8516 350 73.747 350.895 73.747 352 73.747 353.105 72.8516 354 71.747 354L64.5 354C62.2909 354 60.5 355.791 60.5 358 60.5 360.209 62.2909 362 64.5 362ZM46.609 380 60.129 380C61.2336 380 62.129 380.895 62.129 382 62.129 383.105 61.2336 384 60.129 384L48.229 384C47.5986 382.705 47.0573 381.369 46.609 380ZM77 402C65.5744 401.992 55.0194 395.894 49.305 386L60.129 386C62.3381 386 64.129 384.209 64.129 382 64.129 379.791 62.3381 378 60.129 378L46.012 378C45.3384 375.387 44.9984 372.699 45 370 45 369.327 45.028 368.661 45.069 368L82.5 368C84.7091 368 86.5 366.209 86.5 364 86.5 361.791 84.7091 360 82.5 360L64.5 360C63.3954 360 62.5 359.105 62.5 358 62.5 356.895 63.3954 356 64.5 356L71.75 356C73.9591 356 75.75 354.209 75.75 352 75.75 349.791 73.9591 348 71.75 348L53.8 348C65.9232 335.178 86.1448 334.612 98.9664 346.735 101.216 348.863 103.145 351.306 104.692 353.988L95.129 353.988C92.9199 353.988 91.129 355.779 91.129 357.988 91.129 360.197 92.9199 361.988 95.129 361.988L107.984 361.988C108.66 364.605 109.002 367.297 109 370 109 370.672 108.972 371.337 108.931 372L91.248 372C89.0389 372 87.248 373.791 87.248 376 87.248 378.209 89.0389 380 91.248 380L93.5 380C94.6046 380 95.5 380.895 95.5 382 95.5 383.105 94.6046 384 93.5 384L75.5 384C73.2909 384 71.5 385.791 71.5 388 71.5 390.209 73.2909 392 75.5 392L100.206 392C94.1765 398.385 85.7819 402.002 77 402ZM93.5 378 91.25 378C90.1454 378 89.25 377.105 89.25 376 89.25 374.895 90.1454 374 91.25 374L108.741 374C108.006 379.859 105.656 385.399 101.954 390L75.5 390C74.3954 390 73.5 389.105 73.5 388 73.5 386.895 74.3954 386 75.5 386L93.5 386C95.7091 386 97.5 384.209 97.5 382 97.5 379.791 95.7091 378 93.5 378Z"/></g></svg>