<svg width="96" height="96" xmlns="http://www.w3.org/2000/svg" xmlns:xlink="http://www.w3.org/1999/xlink" overflow="hidden"><defs><clipPath id="clip0"><rect x="794" y="31" width="96" height="96"/></clipPath></defs><g clip-path="url(#clip0)" transform="translate(-794 -31)"><path d="M881 61.25 879.264 61.25 876.358 58.925C875.737 58.4342 875.042 58.0438 874.3 57.768 874.313 54.9604 872.958 52.3225 870.668 50.698 869.427 49.8013 867.975 49.2399 866.453 49.068 866.228 49.0476 866.017 49.1768 865.932 49.386 865.85 49.5977 865.921 49.8378 866.105 49.971 868.28 51.542 870.237 54.571 870.223 57.25L868.563 57.25C867.246 53.9994 864.07 51.8893 860.563 51.935 859.032 51.9341 857.526 52.3289 856.192 53.081 855.951 53.2162 855.866 53.521 856.001 53.7618 856.089 53.9198 856.257 54.0175 856.438 54.017 859.218 54.0357 861.867 55.2063 863.752 57.25L859.5 57.25C858.257 57.25 857.25 58.2574 857.25 59.5 857.25 60.7426 858.257 61.75 859.5 61.75L859.571 61.75 860.58 63.466C860.993 64.1791 861.084 65.0336 860.832 65.818 859.631 70.5292 859.396 75.4347 860.142 80.239 860.208 80.739 860.283 81.239 860.363 81.728 860.564 82.9264 860.25 84.1539 859.497 85.108 858.853 85.9272 857.922 86.4707 856.892 86.628 854.573 81.622 851.326 71.708 851.004 65.962L850.971 65.43C850.662 59.5897 851.705 53.7569 854.02 48.386 854.122 48.1355 854.082 47.8493 853.914 47.637 848.852 41.225 837.77 38.7 826.339 41.351 814.667 44.059 805.539 51.406 803.625 59.633 803.519 60.0874 803.801 60.5419 804.256 60.6481 804.468 60.6978 804.691 60.6633 804.879 60.552 806.936 59.3381 809.167 58.4474 811.494 57.911 815.6 56.96 818.144 56.457 821.194 57.368 815.583 60.9628 812.082 67.073 811.819 73.732 811.801 74.0731 811.993 74.3905 812.304 74.532 812.616 74.6527 812.969 74.5864 813.216 74.361 814.885 72.6981 816.802 71.3057 818.9 70.234 821.525 69.069 822.779 68.773 825.161 69.057 820.721 73.0573 819.088 79.3167 821.009 84.976 821.114 85.2989 821.404 85.5264 821.742 85.552 822.076 85.5571 822.386 85.3811 822.553 85.092 823.919 82.7363 825.826 80.7396 828.117 79.267 828.654 78.9081 829.224 78.5988 829.817 78.343 831.962 77.4946 834.39 78.5348 835.255 80.673 835.615 81.4898 835.561 82.4298 835.11 83.2 827.699 82.4434 821.077 87.838 820.321 95.2493 820.274 95.7044 820.251 96.1615 820.251 96.619L820.251 98.064C820.316 101.567 818.123 104.716 814.815 105.87 812.705 106.605 810.37 106.269 808.553 104.97 806.797 103.697 805.756 101.66 805.753 99.491L805.753 90.375 808.864 88.042C809.48 87.5838 809.724 86.7765 809.464 86.054L805.344 74.53C805.078 73.788 804.261 73.4018 803.52 73.6675 803.117 73.8114 802.801 74.1279 802.657 74.53L798.542 86.054C798.283 86.7765 798.527 87.5834 799.142 88.042L802.236 90.362 801.8 100.345C801.493 107.435 806.991 113.431 814.081 113.738 814.266 113.746 814.451 113.75 814.636 113.75L816.647 113.75C823.302 113.75 828.617 108.286 828.747 101.312 828.793 98.7691 830.891 96.7449 833.434 96.7908 833.734 96.7962 834.031 96.8308 834.324 96.894L833.024 106.604C832.974 106.979 832.996 107.361 833.087 107.728L835.087 115.728C835.421 117.064 836.623 118.001 838 118L845 118C846.657 118 848 116.657 848 115 848 113.343 846.657 112 845 112L840.343 112 839.12 107.106C840.615 106.151 841.866 104.861 842.776 103.339 843.575 101.776 844.18 100.12 844.576 98.41 844.689 97.8693 845.218 97.5224 845.759 97.6351 846.3 97.7478 846.647 98.2775 846.534 98.8181 846.531 98.8312 846.528 98.8441 846.525 98.857 846.274 99.9185 845.95 100.961 845.555 101.978L848.677 103.428C852.255 105.081 856.08 106.135 860 106.549L860 115C860 116.657 861.343 118 863 118L870 118C871.657 118 873 116.657 873 115 873 113.343 871.657 112 870 112L866 112 866 106.691C868.225 106.464 870.305 105.479 871.89 103.9 873.729 102.081 874.759 99.5994 874.751 97.013 874.755 91.6247 873.727 86.2855 871.722 81.284L871.1 79.724C870.873 79.1581 870.756 78.5546 870.753 77.945 870.75 77.6259 870.876 77.3191 871.101 77.093 871.318 76.873 871.615 76.7495 871.924 76.75L879.587 76.75C881.335 76.7483 882.751 75.3318 882.753 73.584L882.753 73C882.753 72.5858 882.417 72.25 882.003 72.25L873.793 72.25C874.088 70.242 875.808 68.7528 877.838 68.75L885 68.75C885.414 68.75 885.75 68.4142 885.75 68L885.75 66C885.747 63.378 883.622 61.2533 881 61.25ZM871.76 64.9C870.468 63.8633 870.26 61.9754 871.297 60.683L875.978 64.436C874.942 65.7289 873.054 65.9369 871.761 64.9007 871.761 64.9005 871.76 64.9002 871.76 64.9Z"/></g></svg>