<svg width="96" height="96" xmlns="http://www.w3.org/2000/svg" xmlns:xlink="http://www.w3.org/1999/xlink" overflow="hidden"><defs><clipPath id="clip0"><rect x="563" y="429" width="96" height="96"/></clipPath></defs><g clip-path="url(#clip0)" transform="translate(-563 -429)"><path d="M616.018 471.5 631.612 471.5 619.723 481.838 624.303 497.105 610.96 487.867 597.617 497.105 602.196 481.838 590.308 471.5 605.901 471.5 610.96 456.325ZM604.46 469.5 584.96 469.5 599.91 482.5 594.06 502 610.96 490.3 627.86 502 622.01 482.5 636.96 469.5 617.46 469.5 610.96 450Z"/><path d="M610.96 445C610.408 445 609.96 444.552 609.96 444L609.96 437C609.96 436.448 610.408 436 610.96 436 611.512 436 611.96 436.448 611.96 437L611.96 444C611.96 444.552 611.512 445 610.96 445Z"/><path d="M610.96 518C610.408 518 609.96 517.552 609.96 517L609.96 503C609.96 502.448 610.408 502 610.96 502 611.512 502 611.96 502.448 611.96 503L611.96 517C611.96 517.552 611.512 518 610.96 518Z"/><path d="M576.921 470.489C576.866 470.489 576.811 470.484 576.757 470.476L570.837 469.498C570.292 469.408 569.923 468.893 570.013 468.348 570.103 467.803 570.618 467.434 571.163 467.524L577.083 468.502C577.628 468.591 577.997 469.106 577.908 469.651 577.828 470.134 577.411 470.489 576.921 470.489Z"/><path d="M596.157 459.049C595.892 459.05 595.638 458.944 595.45 458.756L585.374 448.68C584.979 448.294 584.971 447.661 585.356 447.266 585.742 446.871 586.375 446.862 586.77 447.248 586.776 447.254 586.782 447.26 586.788 447.266L596.864 457.342C597.255 457.733 597.255 458.366 596.864 458.757 596.677 458.944 596.422 459.049 596.157 459.049Z"/><path d="M645.668 491.777C645.515 491.777 645.365 491.742 645.227 491.674L633.759 486.034C633.263 485.79 633.059 485.191 633.303 484.695 633.547 484.2 634.146 483.995 634.642 484.239L646.11 489.879C646.606 490.123 646.81 490.722 646.567 491.218 646.398 491.56 646.05 491.777 645.668 491.777Z"/><path d="M576.201 491.777C575.649 491.778 575.201 491.331 575.2 490.778 575.199 490.396 575.416 490.048 575.759 489.879L587.227 484.239C587.723 483.996 588.323 484.2 588.567 484.695 588.81 485.191 588.606 485.791 588.11 486.034L576.642 491.674C576.505 491.742 576.354 491.777 576.201 491.777Z"/><path d="M587.584 511.5C587.032 511.5 586.584 511.051 586.585 510.499 586.585 510.305 586.641 510.116 586.747 509.954L589.738 505.366C590.04 504.903 590.659 504.772 591.122 505.074 591.585 505.375 591.716 505.995 591.414 506.457L588.423 511.046C588.238 511.33 587.922 511.5 587.584 511.5Z"/><path d="M644.36 470.489C643.808 470.489 643.36 470.041 643.36 469.489 643.36 468.999 643.714 468.581 644.198 468.502L650.118 467.524C650.663 467.434 651.178 467.803 651.268 468.348 651.358 468.893 650.989 469.408 650.444 469.498L644.524 470.476C644.47 470.484 644.415 470.489 644.36 470.489Z"/><path d="M625.125 459.049C624.573 459.049 624.125 458.601 624.125 458.049 624.125 457.784 624.231 457.53 624.418 457.342L634.493 447.266C634.89 446.882 635.523 446.891 635.907 447.288 636.284 447.676 636.284 448.292 635.907 448.68L625.832 458.756C625.645 458.944 625.39 459.05 625.125 459.049Z"/><path d="M633.698 511.5C633.36 511.5 633.044 511.33 632.859 511.046L629.867 506.458C629.565 505.995 629.696 505.375 630.159 505.074 630.622 504.772 631.241 504.902 631.543 505.365L634.535 509.954C634.837 510.416 634.706 511.036 634.243 511.337 634.243 511.337 634.243 511.337 634.243 511.337 634.081 511.444 633.892 511.5 633.698 511.5Z"/></g></svg>