<svg width="96" height="96" xmlns="http://www.w3.org/2000/svg" xmlns:xlink="http://www.w3.org/1999/xlink" overflow="hidden"><defs><clipPath id="clip0"><rect x="553" y="142" width="96" height="96"/></clipPath></defs><g clip-path="url(#clip0)" transform="translate(-553 -142)"><path d="M601 152C580 152 563 169 563 190 563 211 580 228 601 228 622 228 639 211 639 190 639 169 622 152 601 152ZM601 224C582.3 224 567 208.7 567 190 567 189.5 567 189.1 567 188.6L568.4 186.8C568.8 186.3 569.4 186 570 186L573.4 186C573.8 186 574.1 186.2 574.3 186.6L577.9 193.8C578 194 578.1 194.1 578.2 194.2L579.4 195C580.1 195.4 581 195 581 194.2L581 190.9C581 190.4 581.2 189.9 581.6 189.5L584.2 186.9C584.6 186.5 585.3 186.5 585.7 187L588.7 190.8C588.9 191 589.2 191.2 589.5 191.2L590.2 191.2C590.7 191.2 591.2 191.4 591.6 191.8L592.4 192.6C592.8 193 593.3 193.2 593.8 193.2L594 193.2C594.6 193.2 595 192.8 595 192.2L595 189.8C595 189.4 594.8 189.1 594.4 188.9L593.5 188.5C593.2 188.3 592.9 188 592.9 187.6L592.9 186C592.9 185.4 593.3 185 593.9 185L596.4 185C596.7 185 597 184.8 597.2 184.6L598.6 182.5C598.8 182.2 598.9 181.8 598.9 181.4L598.9 179.3C598.9 179.1 598.9 179 598.8 178.8L598.1 175.8C598 175.3 598.2 174.9 598.6 174.7L599.1 174.5C599.6 174.3 600.1 174.4 600.4 174.8 600.4 174.8 601.3 176.7 601.9 177.1 602.1 177.2 602.7 177.3 602.9 177.1 603.5 176.5 603.3 174.5 603.1 173.2 603 172.5 603.3 171.8 603.9 171.3L606.5 169.3C606.8 169.1 606.9 168.8 606.9 168.5L606.9 168C606.9 167.4 607.3 167 607.9 167 608.5 167 608.9 166.6 608.9 166L608.9 165.8C608.9 165.3 608.6 164.9 608.1 164.8L606.3 164.4C605.6 164.2 605.3 163.4 605.7 162.8L606.9 161.2C607.5 160.4 608.4 160 609.3 160L612.4 160C613.2 160 613.9 159.5 614.2 158.8 626.5 164 635 176 635 190 635 208.7 619.7 224 601 224Z"/><path d="M618.1 210.4C618 210.2 617.9 209.9 617.7 209.7L613.8 203.8C613.3 203 612 203.3 612 204.3L612 205C612 205.6 611.6 206 611 206L610.6 206C610.2 206 609.9 205.8 609.7 205.4L608.9 203.7C608.5 203 607.5 203 607.1 203.7L606.3 204.6C606.1 204.8 605.8 204.9 605.6 204.9L604.9 204.9C604.4 204.9 603.9 205.1 603.5 205.5L599.5 208.7C598.7 209.4 598.5 210.6 599.1 211.4L601.7 215.7C602.4 216.8 603.9 217 604.8 216.1L606.7 214.2C607.4 213.5 608.6 213.4 609.4 214.1L612.7 216.8C612.9 216.9 613.1 217 613.3 217L616 217C616.6 217 617 216.6 617 216L617 214.6C617 214.2 617.2 213.9 617.6 213.7L618.3 213.4C618.7 213.2 619 212.7 618.8 212.2L618.1 210.4Z"/><path d="M607 197 609.5 200.3C609.8 200.7 610.3 200.8 610.7 200.6L612 200 613.7 200.6C614.3 200.8 615 200.3 615 199.7L615 199.7C615 199.3 614.8 199 614.5 198.8L610.2 196.2C610.1 196 609.9 196 609.7 196L607 196 607 197Z"/><path d="M599.3 197.8 599.9 195.6C600 195.3 599.9 194.9 599.6 194.7 599.3 194.4 598.7 194.3 598.3 194.6L596.3 196.1C595.7 196.5 595.8 197.5 596.5 197.8L597.9 198.5C598.5 198.7 599.1 198.4 599.3 197.8Z"/><path d="M589.7 195.5C589.3 195.2 588.8 195.3 588.4 195.6L588 196 593.9 200.9C594 201 594.1 201 594.2 201.1L596.4 201.8C596.8 201.9 597.2 201.8 597.4 201.6L598 201C593.8 199.8 589.7 195.5 589.7 195.5Z"/><path d="M604 180C606.7 178.2 609.8 176.1 609 173 608.9 172.8 608.1 172.8 608 173 607.6 174.8 607.2 176.3 603 179 602.8 179.2 603.6 180.2 604 180Z"/></g></svg>