<svg width="96" height="96" xmlns="http://www.w3.org/2000/svg" xmlns:xlink="http://www.w3.org/1999/xlink" overflow="hidden"><defs><clipPath id="clip0"><rect x="270" y="333" width="96" height="96"/></clipPath></defs><g clip-path="url(#clip0)" transform="translate(-270 -333)"><path d="M318.037 347C336.815 347 352.037 362.222 352.037 381 352.037 399.778 336.815 415 318.037 415 299.259 415 284.037 399.778 284.037 381 284.059 362.231 299.268 347.021 318.037 347M318.037 343C297.05 343 280.037 360.013 280.037 381 280.037 401.987 297.05 419 318.037 419 339.024 419 356.037 401.987 356.037 381 356.037 360.013 339.024 343 318.037 343Z"/><path d="M335.037 393 301.037 393C299.932 393 299.037 392.105 299.037 391 299.037 389.895 299.932 389 301.037 389L335.037 389C336.142 389 337.037 389.895 337.037 391 337.037 392.105 336.142 393 335.037 393Z"/><path d="M299.037 373C299.037 371.895 299.932 371 301.037 371L311.037 371C312.142 371 313.037 371.895 313.037 373 313.037 374.105 312.142 375 311.037 375L301.037 375C299.932 375 299.037 374.105 299.037 373Z"/><path d="M335.037 375 325.037 375C323.932 375 323.037 374.105 323.037 373 323.037 371.895 323.932 371 325.037 371L335.037 371C336.142 371 337.037 371.895 337.037 373 337.037 374.105 336.142 375 335.037 375Z"/></g></svg>