<svg width="96" height="96" xmlns="http://www.w3.org/2000/svg" xmlns:xlink="http://www.w3.org/1999/xlink" overflow="hidden"><defs><clipPath id="clip0"><rect x="680" y="429" width="96" height="96"/></clipPath></defs><g clip-path="url(#clip0)" transform="translate(-680 -429)"><path d="M766.751 476.34C765.985 475.468 747.768 455 728 455 708.232 455 690.015 475.468 689.249 476.34 688.917 476.717 688.917 477.283 689.249 477.66 690.015 478.532 708.232 499 728 499 747.768 499 765.985 478.532 766.751 477.66 767.083 477.283 767.083 476.717 766.751 476.34ZM709 477C709 466.507 717.507 458 728 458 738.493 458 747 466.507 747 477 747 487.493 738.493 496 728 496 717.511 495.988 709.012 487.489 709 477ZM691.359 477C693.959 474.24 704.536 463.583 717.112 459.055 717.161 459.037 717.165 459.045 717.12 459.072 707.219 465.048 704.036 477.918 710.012 487.82 711.769 490.731 714.209 493.171 717.12 494.928 717.165 494.955 717.161 494.963 717.112 494.945 704.536 490.417 693.955 479.76 691.359 477ZM738.888 494.945C738.839 494.963 738.835 494.955 738.88 494.928 748.781 488.952 751.964 476.082 745.988 466.18 744.231 463.269 741.791 460.829 738.88 459.072 738.835 459.045 738.839 459.037 738.888 459.055 751.464 463.583 762.045 474.24 764.641 477 762.045 479.76 751.464 490.417 738.888 494.945Z"/><path d="M728 468C723.029 468 719 472.029 719 477 719 481.971 723.029 486 728 486 732.971 486 737 481.971 737 477 736.994 472.032 732.968 468.006 728 468ZM728 484C724.134 484 721 480.866 721 477 721 473.134 724.134 470 728 470 731.866 470 735 473.134 735 477 734.996 480.864 731.864 483.996 728 484Z"/></g></svg>