<svg width="96" height="96" xmlns="http://www.w3.org/2000/svg" xmlns:xlink="http://www.w3.org/1999/xlink" overflow="hidden"><defs><clipPath id="clip0"><rect x="24" y="221" width="96" height="96"/></clipPath></defs><g clip-path="url(#clip0)" transform="translate(-24 -221)"><path d="M101.46 277.77C100.68 273.89 98.99 271.11 96.46 269.49 94.364 268.215 91.8797 267.736 89.46 268.14L89.48 267C89.5697 264.786 88.7745 262.627 87.27 261L55.7 261C54.1966 262.628 53.3985 264.785 53.48 267L53.56 268.14C51.1403 267.738 48.6566 268.217 46.56 269.49 44 271.11 42.31 273.89 41.56 277.77 41.3455 278.852 42.048 279.904 43.13 280.12 43.2629 280.135 43.3971 280.135 43.53 280.12 44.4955 280.139 45.3371 279.466 45.53 278.52 46.07 275.78 47.15 273.87 48.74 272.85 50.0249 272.099 51.5372 271.837 53 272.11 53.2643 272.16 53.5357 272.16 53.8 272.11L54.48 283C54.5729 284.295 54.8214 285.574 55.22 286.81 54.1809 286.913 53.1857 287.281 52.33 287.88 50.45 289.24 49.5 291.63 49.5 295L49.5 302 45.5 302C44.3954 301.995 43.4962 302.887 43.4914 303.991 43.4905 304.216 43.5272 304.438 43.6 304.65 43.8896 305.497 44.7064 306.048 45.6 306L51.5 306C52.6046 306 53.5 305.105 53.5 304L53.5 295C53.5 293.06 53.91 291.69 54.66 291.14 55.3443 290.775 56.1436 290.689 56.89 290.9 57.0266 290.944 57.1673 290.974 57.31 290.99 60.5886 295.471 65.8386 298.081 71.39 297.99L71.58 297.99C77.131 298.079 82.3803 295.469 85.66 290.99 85.81 290.979 85.9579 290.949 86.1 290.9 86.8428 290.685 87.6404 290.771 88.32 291.14 89.07 291.69 89.48 293.06 89.48 295L89.48 304C89.48 305.105 90.3754 306 91.48 306L97.4 306C98.2936 306.048 99.1105 305.497 99.4 304.65 99.7591 303.605 99.2034 302.467 98.1589 302.108 97.9405 302.033 97.7108 301.997 97.48 302L93.48 302 93.48 295C93.48 291.63 92.48 289.24 90.65 287.88 89.7923 287.271 88.7878 286.902 87.74 286.81 88.1481 285.577 88.3968 284.296 88.48 283L89.16 272.14C89.4277 272.19 89.7023 272.19 89.97 272.14 91.4698 271.856 93.0216 272.134 94.33 272.92 95.91 273.92 96.99 275.85 97.54 278.59 97.7329 279.536 98.5745 280.21 99.54 280.19 99.6696 280.205 99.8004 280.205 99.93 280.19 101.01 279.961 101.7 278.899 101.471 277.818 101.467 277.802 101.464 277.786 101.46 277.77ZM73.46 293.89C72.1276 293.96 70.7924 293.96 69.46 293.89L69.46 265 73.46 265Z"/><path d="M98.43 237.71 92.43 237.71C91.3254 237.71 90.43 238.605 90.43 239.71L90.43 248.71C90.43 250.66 90.01 252.03 89.25 252.58 88.8974 252.813 88.4828 252.935 88.06 252.93 86.9452 249.349 83.9381 246.681 80.25 246 79.843 244.215 78.9011 242.596 77.55 241.36 77.2343 239.495 77.6382 237.579 78.68 236 79.95 234.41 82.37 233.73 85.87 234 86.9746 234.08 87.9349 233.25 88.015 232.145 88.0951 231.04 87.2646 230.08 86.16 230 81.26 229.65 77.68 230.84 75.54 233.54 74.3017 235.188 73.6031 237.179 73.54 239.24 72.8844 239.085 72.2135 239.005 71.54 239 71.0335 239.001 70.5281 239.048 70.03 239.14 69.9466 237.114 69.2491 235.161 68.03 233.54 65.82 230.84 62.24 229.65 57.34 230 56.2354 230.08 55.4049 231.04 55.485 232.145 55.5651 233.25 56.5254 234.08 57.63 234 61.13 233.74 63.55 234.42 64.82 236 65.7911 237.43 66.2104 239.164 66 240.88 64.3421 242.153 63.1789 243.963 62.71 246 59.0237 246.68 56.0192 249.349 54.91 252.93 54.4711 252.939 54.0394 252.817 53.67 252.58 52.92 252.03 52.5 250.66 52.5 248.71L52.5 239.71C52.5 238.605 51.6046 237.71 50.5 237.71L44.5 237.71C43.3954 237.71 42.5 238.605 42.5 239.71 42.5 240.815 43.3954 241.71 44.5 241.71L48.5 241.71 48.5 248.71C48.5 252.07 49.45 254.47 51.33 255.82 52.2574 256.499 53.3546 256.907 54.5 257L88.5 257C89.6188 256.898 90.6878 256.49 91.59 255.82 93.47 254.47 94.43 252.07 94.43 248.71L94.43 241.71 98.43 241.71C99.5346 241.71 100.43 240.815 100.43 239.71 100.43 238.605 99.5346 237.71 98.43 237.71Z"/></g></svg>