<svg width="96" height="96" xmlns="http://www.w3.org/2000/svg" xmlns:xlink="http://www.w3.org/1999/xlink" overflow="hidden"><defs><clipPath id="clip0"><rect x="133" y="418" width="96" height="96"/></clipPath></defs><g clip-path="url(#clip0)" transform="translate(-133 -418)"><path d="M181.037 428C160.05 428 143.037 445.013 143.037 466 143.037 486.987 160.05 504 181.037 504 202.024 504 219.037 486.987 219.037 466 219.037 445.013 202.024 428 181.037 428ZM162.037 458C162.037 456.895 162.932 456 164.037 456L174.037 456C175.142 456 176.037 456.895 176.037 458 176.037 459.105 175.142 460 174.037 460L164.037 460C162.932 460 162.037 459.105 162.037 458ZM198.037 478 164.037 478C162.932 478 162.037 477.105 162.037 476 162.037 474.895 162.932 474 164.037 474L198.037 474C199.142 474 200.037 474.895 200.037 476 200.037 477.105 199.142 478 198.037 478ZM198.037 460 188.037 460C186.932 460 186.037 459.105 186.037 458 186.037 456.895 186.932 456 188.037 456L198.037 456C199.142 456 200.037 456.895 200.037 458 200.037 459.105 199.142 460 198.037 460Z"/></g></svg>