<svg width="96" height="96" xmlns="http://www.w3.org/2000/svg" xmlns:xlink="http://www.w3.org/1999/xlink" overflow="hidden"><defs><clipPath id="clip0"><rect x="137" y="29" width="96" height="96"/></clipPath></defs><g clip-path="url(#clip0)" transform="translate(-137 -29)"><path d="M221.527 40.476C215.075 34.025 205.719 40.927 193.699 52.621 197.931 51.1571 202.249 49.9548 206.629 49.021 207.71 48.7907 208.772 49.48 209.003 50.5605 209.233 51.641 208.544 52.7037 207.463 52.934 200.241 54.4648 193.206 56.7736 186.482 59.82 183.534 62.81 180.454 65.958 177.241 69.171 176.502 69.9097 175.769 70.641 175.041 71.365 179.723 69.6716 184.516 68.3017 189.386 67.265 190.465 67.0276 191.532 67.7096 191.769 68.7883 192.007 69.8671 191.325 70.934 190.246 71.1715 190.237 71.1734 190.229 71.1752 190.22 71.177 182.311 72.8487 174.629 75.4603 167.34 78.956 163.54 82.707 160.012 86.241 156.969 89.546 161.596 87.8825 166.331 86.5347 171.14 85.512 172.222 85.2888 173.28 85.9849 173.503 87.0667 173.724 88.1384 173.043 89.1888 171.974 89.424 164.889 90.9264 157.984 93.177 151.374 96.138 145.986 103.231 144.114 109.031 148.543 113.46 157.692 122.61 172.675 104.916 192.829 84.76 212.983 64.604 230.676 49.625 221.527 40.476Z"/></g></svg>