<svg width="96" height="96" xmlns="http://www.w3.org/2000/svg" xmlns:xlink="http://www.w3.org/1999/xlink" overflow="hidden"><defs><clipPath id="clip0"><rect x="561" y="253" width="96" height="96"/></clipPath></defs><g clip-path="url(#clip0)" transform="translate(-561 -253)"><path d="M649 292 645 292 645 281C645 278.8 643.2 277 641 277L569 277C566.8 277 565 278.8 565 281L565 321C565 323.2 566.8 325 569 325L641 325C643.2 325 645 323.2 645 321L645 310 649 310C651.2 310 653 308.2 653 306L653 296C653 293.8 651.2 292 649 292ZM639 319 571 319 571 283 639 283 639 319Z"/><path d="M575 287 583 287 583 315 575 315Z"/></g></svg>