<svg width="96" height="96" xmlns="http://www.w3.org/2000/svg" xmlns:xlink="http://www.w3.org/1999/xlink" overflow="hidden"><defs><clipPath id="clip0"><rect x="553" y="19" width="96" height="96"/></clipPath></defs><g clip-path="url(#clip0)" transform="translate(-553 -19)"><path d="M593.953 60.578C593.964 62.3679 593.596 64.1399 592.875 65.778 592.177 67.3733 591.192 68.827 589.969 70.067 588.74 71.3097 587.284 72.3054 585.68 73 584.047 73.717 582.283 74.0842 580.5 74.078 578.689 74.0912 576.894 73.7321 575.227 73.023 571.991 71.6624 569.416 69.0881 568.055 65.852 567.346 64.1846 566.987 62.3896 567 60.578 566.966 58.5933 567.34 56.6229 568.1 54.789 568.901 52.9808 569.985 51.3116 571.311 49.844 573.135 47.8026 575.187 45.9779 577.428 44.406 579.694 42.8122 582.121 41.4611 584.67 40.375 587.223 39.2839 589.876 38.4439 592.592 37.867 600.706 36.1427 609.156 37.0033 616.756 40.328 621.789 42.5823 626.323 45.8174 630.092 49.844L625.217 54.484C622.07 51.1293 618.285 48.4364 614.084 46.563 609.873 44.6861 605.31 43.7272 600.7 43.75 597.934 43.7486 595.179 44.095 592.5 44.781 589.819 45.4661 587.235 46.49 584.813 47.828 586.141 48.2893 587.389 48.9535 588.513 49.797 589.624 50.6241 590.598 51.6206 591.4 52.75 592.199 53.8797 592.831 55.1193 593.275 56.43 593.729 57.7657 593.958 59.1674 593.953 60.578ZM573.753 60.578C573.747 61.4866 573.922 62.3872 574.269 63.227 574.931 64.8579 576.224 66.1514 577.855 66.813 578.695 67.1585 579.595 67.3336 580.503 67.328 581.406 67.3349 582.301 67.1513 583.128 66.789 583.923 66.4415 584.646 65.9487 585.261 65.336 587.87 62.6894 587.839 58.429 585.193 55.82 582.573 53.2373 578.365 53.2373 575.745 55.82 575.133 56.4347 574.64 57.158 574.292 57.953 573.929 58.7802 573.744 59.6746 573.75 60.578Z"/><path d="M633.352 68.805C631.99 65.5689 629.416 62.9945 626.18 61.633 624.513 60.9245 622.718 60.5654 620.906 60.578 619.116 60.5677 617.344 60.9351 615.706 61.656 614.112 62.3539 612.664 63.3482 611.441 64.586 610.213 65.832 609.226 67.2947 608.531 68.9 607.246 71.8526 607.103 75.1772 608.131 78.229 608.575 79.5396 609.206 80.7788 610.006 81.908 610.807 83.0371 611.779 84.0335 612.889 84.861 614.013 85.7047 615.261 86.3689 616.589 86.83 614.166 88.1683 611.583 89.1922 608.901 89.877 606.222 90.5635 603.467 90.9099 600.701 90.908 596.091 90.9302 591.53 89.9709 587.32 88.094 583.119 86.2205 579.334 83.5272 576.188 80.172L571.313 84.813C575.081 88.8396 579.615 92.0743 584.648 94.328 592.248 97.6529 600.699 98.5135 608.813 96.789 611.528 96.2119 614.181 95.372 616.734 94.281 619.283 93.195 621.711 91.8439 623.977 90.25 626.218 88.6779 628.27 86.8536 630.094 84.813 631.419 83.3443 632.503 81.6749 633.305 79.867 634.064 78.033 634.438 76.0626 634.405 74.078 634.418 72.2668 634.06 70.4722 633.352 68.805ZM627.117 76.705C626.418 78.3107 625.137 79.592 623.531 80.291 621.855 81.0096 619.957 81.0096 618.281 80.291 616.676 79.5898 615.397 78.3067 614.7 76.7 613.981 75.0238 613.981 73.1262 614.7 71.45 615.399 69.8443 616.68 68.563 618.286 67.864 619.962 67.1454 621.86 67.1454 623.536 67.864 625.142 68.563 626.423 69.8443 627.122 71.45 627.841 73.1262 627.841 75.0238 627.122 76.7Z"/></g></svg>