<svg width="356" height="357" xmlns="http://www.w3.org/2000/svg" xmlns:xlink="http://www.w3.org/1999/xlink" overflow="hidden"><defs><clipPath id="clip0"><rect x="458" y="226" width="356" height="357"/></clipPath></defs><g clip-path="url(#clip0)" transform="translate(-458 -226)"><path d="M224.354 76.0208C224.354 101.622 203.601 122.375 178 122.375 152.399 122.375 131.646 101.622 131.646 76.0208 131.646 50.4201 152.399 29.6667 178 29.6667 203.601 29.6667 224.354 50.4201 224.354 76.0208Z" transform="matrix(1 0 0 1.00281 458 226)"/><path d="M211.375 231.771C211.375 232.142 211.375 232.512 211.375 232.883 198.396 233.996 188.754 244.75 189.125 257.729 189.125 261.438 190.237 265.146 192.092 268.113 188.012 269.596 182.821 270.337 177.258 270.337 171.325 270.337 166.504 269.596 162.796 268.113 168.358 259.954 168.358 248.829 162.425 240.3 157.975 234.367 151.671 230.658 144.625 229.917L144.625 222.5 211.375 222.5 211.375 231.771ZM282.575 163.908 218.792 130.533C217.308 130.162 215.825 129.792 214.342 129.792L144.625 129.792C142.771 129.792 141.287 130.162 139.433 130.533L72.6833 167.617C64.8958 170.583 61.1875 179.112 63.7833 186.529 66.0083 192.833 71.9417 196.542 77.875 196.542 79.7292 196.542 81.2125 196.171 83.0667 195.8L129.792 171.325C129.792 171.325 129.792 232.512 129.792 233.625 129.05 233.996 99.3833 254.762 99.3833 254.762 93.0792 259.212 91.225 268.113 95.3042 274.787L121.262 315.579C125.713 322.625 134.983 324.479 141.658 320.029 148.333 315.579 150.558 306.308 146.108 299.633L133.5 279.238 141.658 279.238C144.254 279.238 146.85 278.867 149.446 278.125 156.121 282.575 165.021 285.171 176.887 285.171 188.012 285.171 196.912 282.575 203.958 278.867 206.925 280.35 210.633 280.721 214.342 280.721L221.017 280.35 207.667 298.892C202.846 305.567 204.329 314.837 211.004 319.658 217.679 324.479 226.95 322.996 231.771 316.321L261.438 275.529C261.808 275.158 262.179 274.787 262.179 274.046 266.258 267 263.662 257.729 256.617 253.65L226.208 236.592C226.208 235.108 226.208 169.842 226.208 169.842L273.675 192.463C275.158 192.833 276.642 193.204 278.125 193.204 284.429 193.204 290.363 189.125 292.217 182.821 294.812 174.662 290.363 166.504 282.575 163.908Z" transform="matrix(1 0 0 1.00281 458 226)"/></g></svg>