<svg width="96" height="96" xmlns="http://www.w3.org/2000/svg" xmlns:xlink="http://www.w3.org/1999/xlink" overflow="hidden"><defs><clipPath id="clip0"><rect x="24" y="599" width="96" height="96"/></clipPath></defs><g clip-path="url(#clip0)" transform="translate(-24 -599)"><path d="M80 610C80 614.418 76.4183 618 72 618 67.5817 618 64 614.418 64 610 64 605.582 67.5817 602 72 602 76.4183 602 80 605.582 80 610Z"/><path d="M93.8 651.2 88.2 627.4C88 626.6 87.6 625.8 87 625.2 84.6 623.2 81.8 621.8 78.6 620.8 76.4 620.4 74.2 620 72 620 69.8 620 67.6 620.4 65.4 621 62.2 621.8 59.4 623.4 57 625.4 56.4 626 56 626.8 55.8 627.6L50.2 651.4C50.2 651.6 50 652 50 652.4 50 654.6 51.8 656.4 54 656.4 55.8 656.4 57.4 655 57.8 653.4L62 636 62 692 70 692 70 656 74 656 74 692 82 692 82 635.8 86.2 653.2C86.6 654.8 88.2 656.2 90 656.2 92.2 656.2 94 654.4 94 652.2 94 651.8 93.8 651.4 93.8 651.2Z"/></g></svg>