<svg width="96" height="96" xmlns="http://www.w3.org/2000/svg" xmlns:xlink="http://www.w3.org/1999/xlink" overflow="hidden"><defs><clipPath id="clip0"><rect x="165" y="595" width="96" height="96"/></clipPath></defs><g clip-path="url(#clip0)" transform="translate(-165 -595)"><path d="M256.003 630.405 230.04 625.685 230.003 625.888 230.003 631.776 232.006 632.141 232.006 636 222.003 636 222.003 614.826 224.003 614.335 224.003 608.156 170.003 621.419 170.003 627.598 172.003 627.107 172.003 677 222.003 677 222.003 663 232.003 663 232.003 677 254.006 677 254.006 636.141 256.003 636.504ZM178.003 640 188.003 640 188.003 653 178.003 653ZM192.003 640 202.003 640 202.003 653 192.003 653ZM192.003 636 192.003 622.195 202.003 619.739 202.003 636ZM206.003 640 216.003 640 216.003 653 206.003 653ZM232.006 640 232.006 653 222.003 653 222.003 640ZM216.003 636 206.003 636 206.003 618.756 216.003 616.3ZM188.003 623.177 188.003 636 178.003 636 178.003 625.633ZM248.006 653 238.006 653 238.006 633.232 248.006 635.05Z"/></g></svg>